<svg id="Camada_1" data-name="Camada 1" xmlns="http://www.w3.org/2000/svg" viewBox="0 0 357.17 99.03"><path d="M14.14,27a13.21,13.21,0,0,1,5.18,1,11.19,11.19,0,0,1,3.6,2.4L18.43,34a5.87,5.87,0,0,0-1.62-1.18,6,6,0,0,0-2.64-.52,4.82,4.82,0,0,0-3.93,1.77,7.14,7.14,0,0,0-1.42,4.66,7.12,7.12,0,0,0,1.52,4.8,5.69,5.69,0,0,0,4.54,1.79,9.22,9.22,0,0,0,2.37-.3,8,8,0,0,0,2-.79l.25-.15V41.28H14.59V37.67H24.92V46.8a13.46,13.46,0,0,1-4.29,2.53,16.37,16.37,0,0,1-5.84,1A13.19,13.19,0,0,1,8.2,48.79,10.53,10.53,0,0,1,4,44.61a12.12,12.12,0,0,1-1.43-5.85,12.43,12.43,0,0,1,1.49-6.07,10.9,10.9,0,0,1,4.13-4.2A11.82,11.82,0,0,1,14.14,27m0-.74a12.47,12.47,0,0,0-6.31,1.61,11.58,11.58,0,0,0-4.41,4.48,13.18,13.18,0,0,0-1.59,6.43A12.75,12.75,0,0,0,3.36,45a11.3,11.3,0,0,0,4.47,4.47,14,14,0,0,0,7,1.66A17.11,17.11,0,0,0,20.89,50a14.55,14.55,0,0,0,4.53-2.67l.25-.23v-10a.2.2,0,0,0-.19-.19H14a.19.19,0,0,0-.18.19v4.73A.18.18,0,0,0,14,42h4.74v1.65a7.53,7.53,0,0,1-1.7.66,8.7,8.7,0,0,1-2.19.27,5,5,0,0,1-4-1.53,6.42,6.42,0,0,1-1.33-4.31,6.5,6.5,0,0,1,1.24-4.19,4.08,4.08,0,0,1,3.36-1.49,5.2,5.2,0,0,1,2.31.44,5.18,5.18,0,0,1,1.42,1l.36.36a.18.18,0,0,0,.25,0l.39-.32L23.39,31l.48-.39a.19.19,0,0,0,0-.28l-.44-.44a12.14,12.14,0,0,0-3.83-2.56,13.93,13.93,0,0,0-5.47-1.05Z"/><path d="M42.82,27.42v4.66H35.28a.26.26,0,0,0-.26.26V36a.25.25,0,0,0,.26.26h6.83v4.11H35.28a.26.26,0,0,0-.26.26V45a.25.25,0,0,0,.26.25h7.57v4.67H29V27.42H42.82m.75-.75H28.43a.19.19,0,0,0-.19.19V50.48a.19.19,0,0,0,.19.18h15a.19.19,0,0,0,.19-.18V44.7a.19.19,0,0,0-.19-.19H35.76V41.06h6.91a.18.18,0,0,0,.18-.18V35.65a.18.18,0,0,0-.18-.18H35.76V32.83h7.62a.2.2,0,0,0,.19-.19v-6Z"/><path d="M57.89,27A12.06,12.06,0,0,1,64,28.51a10.83,10.83,0,0,1,4.13,4.23,12.7,12.7,0,0,1,0,11.86A10.9,10.9,0,0,1,64,48.83a13,13,0,0,1-12.33,0,10.94,10.94,0,0,1-4.13-4.22,12.83,12.83,0,0,1,0-11.89,11,11,0,0,1,4.13-4.21A12.12,12.12,0,0,1,57.89,27m0-.74a12.8,12.8,0,0,0-6.55,1.65,11.69,11.69,0,0,0-4.41,4.5,13.52,13.52,0,0,0,0,12.61,11.67,11.67,0,0,0,4.4,4.5,13.73,13.73,0,0,0,13.09,0A11.56,11.56,0,0,0,68.82,45a13.46,13.46,0,0,0,0-12.58,11.52,11.52,0,0,0-4.4-4.52,12.78,12.78,0,0,0-6.53-1.65Z"/><path d="M84.47,27a13.05,13.05,0,0,1,5.14,1,11.33,11.33,0,0,1,3.59,2.41l-4.38,3.82a5.29,5.29,0,0,0-4.19-1.88,4.93,4.93,0,0,0-4,1.81,6.87,6.87,0,0,0-1.45,4.5,6.82,6.82,0,0,0,1.55,4.63A5.28,5.28,0,0,0,84.84,45a6,6,0,0,0,4.52-2l4.37,3.7a11.9,11.9,0,0,1-3.68,2.53,13.38,13.38,0,0,1-5.55,1.11,12.1,12.1,0,0,1-6.16-1.51,10.26,10.26,0,0,1-4-4.14,12.67,12.67,0,0,1-1.41-6,12.88,12.88,0,0,1,1.4-6,10.42,10.42,0,0,1,4-4.22A11.92,11.92,0,0,1,84.47,27m0-.74a12.63,12.63,0,0,0-6.54,1.65,11.21,11.21,0,0,0-4.28,4.52,13.75,13.75,0,0,0-1.48,6.38,13.37,13.37,0,0,0,1.49,6.32A11.13,11.13,0,0,0,78,49.52a12.94,12.94,0,0,0,6.54,1.61A14.23,14.23,0,0,0,90.36,50a12.61,12.61,0,0,0,3.91-2.7l.41-.43a.18.18,0,0,0,0-.27l-.46-.38-4.37-3.7-.41-.34a.18.18,0,0,0-.25,0l-.37.39a5.25,5.25,0,0,1-4,1.75,4.53,4.53,0,0,1-3.57-1.55,6,6,0,0,1-1.37-4.13,6.15,6.15,0,0,1,1.28-4A4.19,4.19,0,0,1,84.63,33a4.51,4.51,0,0,1,3.62,1.62l.37.43a.19.19,0,0,0,.26,0l.43-.37,4.38-3.81.45-.4a.17.17,0,0,0,0-.27l-.42-.42a12,12,0,0,0-3.83-2.58,13.76,13.76,0,0,0-5.43-1.05Z"/><path d="M111,27.42l7.7,22.5h-6.28l-.94-3.4a.26.26,0,0,0-.25-.19h-7.8a.26.26,0,0,0-.24.19l-.94,3.4H96l7.7-22.5H111m.54-.75h-8.41l-.18.5L95.27,49.68l-.26.74a.19.19,0,0,0,.18.25h7.49a.18.18,0,0,0,.18-.14l.12-.41.84-3h7.05l.84,3,.11.41a.19.19,0,0,0,.18.14h7.49a.19.19,0,0,0,.18-.25l-.25-.74-7.7-22.51-.17-.5Z"/><path d="M131.47,27a13.05,13.05,0,0,1,5.14,1,11.45,11.45,0,0,1,3.59,2.41l-4.39,3.82a5.28,5.28,0,0,0-4.19-1.88,5,5,0,0,0-4,1.81,6.92,6.92,0,0,0-1.45,4.5,6.82,6.82,0,0,0,1.56,4.63,5.25,5.25,0,0,0,4.13,1.8,6,6,0,0,0,4.52-2l4.37,3.7a11.9,11.9,0,0,1-3.68,2.53,13.42,13.42,0,0,1-5.55,1.11,12.14,12.14,0,0,1-6.17-1.51,10.3,10.3,0,0,1-4-4.14,12.56,12.56,0,0,1-1.41-6,12.88,12.88,0,0,1,1.4-6,10.35,10.35,0,0,1,4-4.22A11.92,11.92,0,0,1,131.47,27m0-.74a12.61,12.61,0,0,0-6.54,1.65,11.21,11.21,0,0,0-4.28,4.52,13.64,13.64,0,0,0-1.49,6.38,13.37,13.37,0,0,0,1.5,6.32,11.06,11.06,0,0,0,4.3,4.44,12.89,12.89,0,0,0,6.54,1.61A14.23,14.23,0,0,0,137.36,50a12.44,12.44,0,0,0,3.9-2.7l.42-.43a.19.19,0,0,0,0-.27l-.46-.38-4.37-3.7-.41-.34a.19.19,0,0,0-.26,0l-.36.39a5.27,5.27,0,0,1-4,1.75,4.53,4.53,0,0,1-3.57-1.55,6,6,0,0,1-1.37-4.13,6.15,6.15,0,0,1,1.28-4A4.18,4.18,0,0,1,131.62,33a4.52,4.52,0,0,1,3.63,1.62l.37.43a.19.19,0,0,0,.26,0l.42-.37,4.39-3.81.45-.4a.18.18,0,0,0,0-.27l-.42-.42a12.08,12.08,0,0,0-3.83-2.58,13.76,13.76,0,0,0-5.43-1.05Z"/><path d="M163.35,27.42v22.5h-6v-9a.26.26,0,0,0-.26-.26h-6.49a.26.26,0,0,0-.26.26v9h-6V27.42h6v8.32a.25.25,0,0,0,.26.25h6.49a.26.26,0,0,0,.26-.25V27.42h6m.75-.75h-7.33a.18.18,0,0,0-.19.19v8.39h-5.52V26.86a.18.18,0,0,0-.18-.19h-7.15a.19.19,0,0,0-.19.19V50.48a.19.19,0,0,0,.19.18h7.15a.18.18,0,0,0,.18-.18V41.41h5.52v9.07a.18.18,0,0,0,.19.18h7.14a.18.18,0,0,0,.19-.18V26.67Z"/><path d="M173.81,27.42v22.5h-6V27.42h6m.75-.75h-7.33a.18.18,0,0,0-.19.19V50.48a.18.18,0,0,0,.19.18h7.14a.19.19,0,0,0,.19-.18V26.67Z"/><path d="M198.07,27.42v22.5H191.9l-7.06-14a.25.25,0,0,0-.23-.14.26.26,0,0,0-.26.26V49.92h-6V27.42h6.16l7.07,13.93a.23.23,0,0,0,.22.14.25.25,0,0,0,.26-.26V27.42h6m.75-.75h-7.28a.18.18,0,0,0-.18.19V39.2l-6.14-12.12-.16-.31a.19.19,0,0,0-.17-.1h-7.06a.18.18,0,0,0-.19.19V50.48a.18.18,0,0,0,.19.18h7.08a.19.19,0,0,0,.19-.18V38.11l6.14,12.15.15.3a.19.19,0,0,0,.17.1h7.07a.19.19,0,0,0,.19-.18V26.67Z"/><path d="M213.55,27a13.23,13.23,0,0,1,5.19,1,11,11,0,0,1,3.59,2.4L217.85,34a5.87,5.87,0,0,0-1.62-1.18,6,6,0,0,0-2.65-.52,4.8,4.8,0,0,0-3.92,1.77,7.09,7.09,0,0,0-1.42,4.66,7.12,7.12,0,0,0,1.52,4.8,5.68,5.68,0,0,0,4.54,1.79,9.22,9.22,0,0,0,2.37-.3,7.73,7.73,0,0,0,2-.79l.13-.08a.25.25,0,0,0,.13-.22V41.54a.26.26,0,0,0-.26-.26H214V37.67h10.33V46.8a13.51,13.51,0,0,1-4.3,2.53,16.29,16.29,0,0,1-5.84,1,13.22,13.22,0,0,1-6.59-1.56,10.57,10.57,0,0,1-4.18-4.18A12.13,12.13,0,0,1,202,38.76a12.44,12.44,0,0,1,1.5-6.07,10.83,10.83,0,0,1,4.13-4.2A11.78,11.78,0,0,1,213.55,27m0-.74a12.46,12.46,0,0,0-6.3,1.61,11.58,11.58,0,0,0-4.41,4.48,13.07,13.07,0,0,0-1.59,6.43A12.75,12.75,0,0,0,202.78,45a11.24,11.24,0,0,0,4.47,4.47,13.93,13.93,0,0,0,6.95,1.66A17.13,17.13,0,0,0,220.31,50a14.67,14.67,0,0,0,4.53-2.67l.25-.23v-10a.2.2,0,0,0-.19-.19H213.45a.2.2,0,0,0-.19.19v4.73a.19.19,0,0,0,.19.18h4.74v1.65a7.81,7.81,0,0,1-1.71.66,8.62,8.62,0,0,1-2.18.27,5,5,0,0,1-4-1.53A6.37,6.37,0,0,1,209,38.76a6.44,6.44,0,0,1,1.25-4.19,4.07,4.07,0,0,1,3.35-1.49,5.25,5.25,0,0,1,2.32.44,5.16,5.16,0,0,1,1.42,1l.35.35a.19.19,0,0,0,.25,0l.4-.32L222.8,31l.48-.39a.19.19,0,0,0,0-.28l-.44-.44A12.14,12.14,0,0,0,219,27.29a13.94,13.94,0,0,0-5.48-1.05Z"/><path d="M107.35,35.58,109,41.43h-3.25l1.63-5.85m0-2.79-.72,2.59L105,41.23l-.27,1H110l-.26-.94-1.62-5.86-.71-2.59Z"/><path d="M57.89,33.46a4.19,4.19,0,0,1,2.24.63,4.28,4.28,0,0,1,1.6,1.81,6.69,6.69,0,0,1,0,5.54,4.34,4.34,0,0,1-1.6,1.81,4.32,4.32,0,0,1-4.49,0A4.51,4.51,0,0,1,54,41.44a6.59,6.59,0,0,1,0-5.54,4.51,4.51,0,0,1,1.61-1.81,4.17,4.17,0,0,1,2.25-.63m0-.75a4.81,4.81,0,0,0-2.64.75,5.19,5.19,0,0,0-1.88,2.1,7.35,7.35,0,0,0,0,6.22,5.19,5.19,0,0,0,1.88,2.1,4.81,4.81,0,0,0,2.64.75,4.87,4.87,0,0,0,2.63-.75,5.14,5.14,0,0,0,1.88-2.11,7.43,7.43,0,0,0,0-6.21,5.06,5.06,0,0,0-1.88-2.1,4.87,4.87,0,0,0-2.63-.75Z"/><path d="M170.73,17.53a8.29,8.29,0,0,1-3.12-1.94l3-3a5,5,0,0,0,1.69,1.28,5.28,5.28,0,0,0,2.39.54,3.22,3.22,0,0,0,1.5-.3,1,1,0,0,0,.58-.9.88.88,0,0,0-.39-.77,4.45,4.45,0,0,0-1.16-.51l-1.91-.6a15.81,15.81,0,0,1-2.86-1.16,5.33,5.33,0,0,1-1.88-1.67,4.44,4.44,0,0,1-.72-2.59,4.55,4.55,0,0,1,.87-2.82,5.3,5.3,0,0,1,2.43-1.76,11.21,11.21,0,0,1,7.83.22,8.84,8.84,0,0,1,2.41,1.57l-2.74,3.12A7.2,7.2,0,0,0,177,5a4.23,4.23,0,0,0-2.07-.5,2.38,2.38,0,0,0-1.36.31.9.9,0,0,0-.46.77.92.92,0,0,0,.5.83,6.42,6.42,0,0,0,1.27.55l2,.62a16.9,16.9,0,0,1,2.48,1,5.31,5.31,0,0,1,1.85,1.58,4.32,4.32,0,0,1,.8,2.71,4.87,4.87,0,0,1-.88,2.93,5.55,5.55,0,0,1-2.49,1.86,10.19,10.19,0,0,1-3.73.64A12.07,12.07,0,0,1,170.73,17.53Z"/><path d="M194.41,13.82V17.9H183.76V1.07h10.63V5.15h-5.58V7.36h5.07V11h-5.07v2.79Z"/><path d="M206.74,15.33h-5.29l-.71,2.57h-5.29l5.76-16.83H207l5.75,16.83h-5.29Zm-1-3.5L204.11,5.9l-1.66,5.93Z"/><path d="M224.68,5.15h-4.14V17.9h-5.07V5.15h-4.14V1.07h13.35Z"/><path d="M17.39,76.86H7.86L6.39,81.6H2l8.26-24.16H15L23.31,81.6H18.86Zm-1-3.3L12.63,61.48,8.91,73.56Z"/><path d="M42.35,57.44V81.6H38.6l-.32-2.7A6.43,6.43,0,0,1,32.65,82a7.26,7.26,0,0,1-3.86-1.08,7.55,7.55,0,0,1-2.78-3A10.33,10.33,0,0,1,26,69a7.65,7.65,0,0,1,2.74-3,7.06,7.06,0,0,1,3.86-1.09,6.53,6.53,0,0,1,3.29.82,6.85,6.85,0,0,1,2.34,2.2V57.44ZM37.09,77.12a5.59,5.59,0,0,0,1.28-3.75,5.44,5.44,0,0,0-1.27-3.72,4.56,4.56,0,0,0-6.69,0,5.52,5.52,0,0,0-1.25,3.75,5.45,5.45,0,0,0,1.28,3.77,4.26,4.26,0,0,0,3.32,1.44A4.21,4.21,0,0,0,37.09,77.12Z"/><path d="M62,65.17,55.44,81.6H51L44.45,65.17H48.8l4.42,12.9,4.39-12.9Z"/><path d="M80.34,74.64H67.62a4.52,4.52,0,0,0,1.53,3.19,5.23,5.23,0,0,0,3.43,1.07,6.39,6.39,0,0,0,2.72-.56A5.51,5.51,0,0,0,77.19,77l2.45,2.1a8.59,8.59,0,0,1-3.17,2.16,11,11,0,0,1-4.18.76,9.88,9.88,0,0,1-4.72-1.06,7.34,7.34,0,0,1-3-3,9.24,9.24,0,0,1-1.05-4.5,9.6,9.6,0,0,1,1-4.48,7.46,7.46,0,0,1,2.93-3,10,10,0,0,1,9.09,0,7.12,7.12,0,0,1,2.88,3,10.06,10.06,0,0,1,1,4.47C80.37,74,80.36,74.41,80.34,74.64ZM69,69a4.79,4.79,0,0,0-1.38,3.08H76.3A4.92,4.92,0,0,0,75,69,4,4,0,0,0,72,67.9,4.26,4.26,0,0,0,69,69Z"/><path d="M97.82,66.58a7.15,7.15,0,0,1,1.49,4.75V81.6H95.18V72.19A5.08,5.08,0,0,0,94.39,69a3.05,3.05,0,0,0-2.55-1,3.23,3.23,0,0,0-2.92,1.47,6.16,6.16,0,0,0-1,3.42V81.6H83.83V65.17h3.72l.38,2.73a5.9,5.9,0,0,1,2.28-2.29,6.37,6.37,0,0,1,3.19-.79A5.46,5.46,0,0,1,97.82,66.58Z"/><path d="M112.57,81.63a14.23,14.23,0,0,1-3.21.35,5.2,5.2,0,0,1-3.91-1.35,6.14,6.14,0,0,1-1.3-4.37V68.47H101.6l.22-3.3h2.33v-4h4.1v4h3.91v3.3h-3.91V76a3.3,3.3,0,0,0,.47,2.06,2,2,0,0,0,1.62.57,7.54,7.54,0,0,0,2-.22Z"/><path d="M117.42,80.11A6.89,6.89,0,0,1,115.53,75V65.17h4.13v9.41a4.51,4.51,0,0,0,.89,3.11,3.4,3.4,0,0,0,2.67,1,3.31,3.31,0,0,0,2.62-1,4.62,4.62,0,0,0,.88-3.11V65.17h4.13V75A6.93,6.93,0,0,1,129,80.11Q127.1,82,123.22,82T117.42,80.11Z"/><path d="M144.93,64.91l-.29,3.94a8.3,8.3,0,0,0-1.78-.19,3.32,3.32,0,0,0-3,1.5,7,7,0,0,0-1,3.94v7.5h-4.13V65.17h3.69l.41,3.08a6.28,6.28,0,0,1,2-2.56,4.77,4.77,0,0,1,2.78-.87A6.63,6.63,0,0,1,144.93,64.91Z"/><path d="M163.88,74.64H151.16a4.52,4.52,0,0,0,1.53,3.19,5.23,5.23,0,0,0,3.43,1.07,6.39,6.39,0,0,0,2.72-.56A5.51,5.51,0,0,0,160.73,77l2.45,2.1A8.59,8.59,0,0,1,160,81.22a11,11,0,0,1-4.18.76,9.88,9.88,0,0,1-4.72-1.06,7.34,7.34,0,0,1-3-3,9.24,9.24,0,0,1-1.05-4.5,9.49,9.49,0,0,1,1-4.48,7.37,7.37,0,0,1,2.92-3,10,10,0,0,1,9.09,0,7.12,7.12,0,0,1,2.88,3,10.06,10.06,0,0,1,1,4.47C163.91,74,163.9,74.41,163.88,74.64ZM152.58,69a4.75,4.75,0,0,0-1.39,3.08h8.65A4.87,4.87,0,0,0,158.5,69a4,4,0,0,0-2.92-1.08A4.22,4.22,0,0,0,152.58,69Z"/><path d="M6,94.29a2,2,0,0,1,.75.84A2.77,2.77,0,0,1,7,96.41a2.72,2.72,0,0,1-.29,1.31,2,2,0,0,1-.76.84,2,2,0,0,1-1.06.29,1.68,1.68,0,0,1-.9-.23A1.57,1.57,0,0,1,3.36,98l-.1.74H1.83V92H3.37v3A1.63,1.63,0,0,1,4,94.24,1.67,1.67,0,0,1,4.92,94,1.94,1.94,0,0,1,6,94.29Zm-.83,3a1.34,1.34,0,0,0,.29-.89,1.41,1.41,0,0,0-.28-.89.94.94,0,0,0-.76-.35,1,1,0,0,0-.77.34,1.47,1.47,0,0,0,0,1.78,1,1,0,0,0,.76.35A1,1,0,0,0,5.14,97.32Z"/><path d="M12.68,94.11l-2.63,6.42H8.69L9.36,99l-2-4.84H9l1,3.23,1-3.23Z"/><path d="M19.14,97.43v1.31H15.22V92h1.59v5.48Z"/><path d="M24.75,96.82H21.28a1.12,1.12,0,0,0,.37.74,1.35,1.35,0,0,0,.84.25,1.79,1.79,0,0,0,.75-.15,1.76,1.76,0,0,0,.52-.36l.82.73a2.63,2.63,0,0,1-1,.61,3.45,3.45,0,0,1-1.23.21,3.12,3.12,0,0,1-1.43-.3,2.17,2.17,0,0,1-.9-.85,2.63,2.63,0,0,1-.31-1.28,2.54,2.54,0,0,1,.3-1.25,2.12,2.12,0,0,1,.87-.86A2.82,2.82,0,0,1,22.29,94a2.75,2.75,0,0,1,1.33.31,2.1,2.1,0,0,1,.86.86,2.76,2.76,0,0,1,.29,1.29C24.77,96.54,24.76,96.66,24.75,96.82ZM21.61,95.3a1.16,1.16,0,0,0-.33.72h2a1.23,1.23,0,0,0-.31-.73.9.9,0,0,0-.67-.25A1,1,0,0,0,21.61,95.3Z"/><path d="M25.85,93.18a.85.85,0,0,1-.26-.62.87.87,0,0,1,.25-.62.84.84,0,0,1,.62-.26.85.85,0,0,1,.62.26.83.83,0,0,1,.25.62.84.84,0,0,1-.25.61.87.87,0,0,1-1.23,0Zm-.15.93h1.54v4.63H25.7Z"/><path d="M31.56,94l-.1,1.39a3.46,3.46,0,0,0-.58-.07.91.91,0,0,0-.78.35,1.57,1.57,0,0,0-.27,1v2.06H28.3V94.11h1.35l.17.87a1.83,1.83,0,0,1,.58-.74,1.33,1.33,0,0,1,.77-.25A1.23,1.23,0,0,1,31.56,94Z"/><path d="M32.42,93.18a.85.85,0,0,1-.26-.62.87.87,0,0,1,.25-.62.87.87,0,0,1,1.24,0,.84.84,0,0,1,.26.62.85.85,0,0,1-.26.61.87.87,0,0,1-1.23,0Zm-.15.93h1.54v4.63H32.27Z"/><path d="M39,94.29a2,2,0,0,1,.75.84,2.77,2.77,0,0,1,.28,1.28,2.84,2.84,0,0,1-.29,1.31,2,2,0,0,1-1.82,1.13,1.68,1.68,0,0,1-.9-.23,1.57,1.57,0,0,1-.63-.62l-.1.74H34.88V92h1.53v3a1.72,1.72,0,0,1,.64-.67A1.67,1.67,0,0,1,38,94,1.94,1.94,0,0,1,39,94.29Zm-.83,3a1.34,1.34,0,0,0,.29-.89,1.41,1.41,0,0,0-.28-.89.94.94,0,0,0-.76-.35,1,1,0,0,0-.78.34,1.51,1.51,0,0,0,0,1.78,1,1,0,0,0,1.53,0Z"/><path d="M45.82,96.82H42.34a1.13,1.13,0,0,0,.38.74,1.35,1.35,0,0,0,.84.25,1.72,1.72,0,0,0,.74-.15,1.82,1.82,0,0,0,.53-.36l.82.73a2.8,2.8,0,0,1-1,.61,3.51,3.51,0,0,1-1.24.21,3.15,3.15,0,0,1-1.43-.3,2.09,2.09,0,0,1-.89-.85,2.78,2.78,0,0,1,0-2.53,2.12,2.12,0,0,1,.87-.86,3.07,3.07,0,0,1,2.71,0,2.07,2.07,0,0,1,.85.86,2.64,2.64,0,0,1,.3,1.29C45.84,96.54,45.83,96.66,45.82,96.82ZM42.67,95.3a1.27,1.27,0,0,0-.33.72h2a1.22,1.22,0,0,0-.3-.73.92.92,0,0,0-.68-.25A1,1,0,0,0,42.67,95.3Zm1.09-1.81h-1L43.42,92H45Z"/><path d="M50,94l-.1,1.39a3.46,3.46,0,0,0-.58-.07.91.91,0,0,0-.78.35,1.57,1.57,0,0,0-.27,1v2.06H46.74V94.11h1.35l.17.87a1.83,1.83,0,0,1,.58-.74,1.33,1.33,0,0,1,.77-.25A1.23,1.23,0,0,1,50,94Z"/><path d="M50.86,93.18a.85.85,0,0,1-.26-.62.87.87,0,0,1,.25-.62.87.87,0,0,1,1.24,0,.84.84,0,0,1,.26.62.85.85,0,0,1-.26.61.87.87,0,0,1-1.23,0Zm-.15.93h1.54v4.63H50.71Z"/><path d="M58.34,94.11v4.63H56.92L56.81,98a1.78,1.78,0,0,1-.62.63,1.73,1.73,0,0,1-.92.24,1.94,1.94,0,0,1-1.06-.29,2,2,0,0,1-.76-.84,2.73,2.73,0,0,1-.28-1.29,2.89,2.89,0,0,1,.27-1.27,2.09,2.09,0,0,1,.74-.86A2,2,0,0,1,55.24,94a1.74,1.74,0,0,1,1.56.91v-.79Zm-1.79,3.2a1.46,1.46,0,0,0,0-1.77,1,1,0,0,0-.76-.35,1,1,0,0,0-.77.34,1.36,1.36,0,0,0-.29.89,1.34,1.34,0,0,0,.29.89,1,1,0,0,0,1.53,0Z"/><path d="M61.43,95.76h3V97h-3Z"/><path d="M73.91,95v2.83a4.24,4.24,0,0,1-1.28.75,4.53,4.53,0,0,1-1.65.28A3.84,3.84,0,0,1,69,98.39a3.07,3.07,0,0,1-1.24-1.26,3.67,3.67,0,0,1-.43-1.76,3.76,3.76,0,0,1,.44-1.81A3.29,3.29,0,0,1,69,92.29a3.45,3.45,0,0,1,1.76-.46,3.91,3.91,0,0,1,1.51.29,3.27,3.27,0,0,1,1.16.79l-1.16,1a2,2,0,0,0-.64-.48,2.06,2.06,0,0,0-.86-.16,1.76,1.76,0,0,0-1,.26,1.73,1.73,0,0,0-.62.74,2.54,2.54,0,0,0-.22,1.1,2.24,2.24,0,0,0,.51,1.54,1.91,1.91,0,0,0,1.49.58,2.7,2.7,0,0,0,1.44-.39v-1h-1.8V95Z"/><path d="M78.2,94l-.1,1.39a3.46,3.46,0,0,0-.58-.07.91.91,0,0,0-.78.35,1.57,1.57,0,0,0-.27,1v2.06H74.94V94.11h1.35l.17.87a1.83,1.83,0,0,1,.58-.74,1.33,1.33,0,0,1,.77-.25A1.23,1.23,0,0,1,78.2,94Z"/><path d="M79.41,98.29a2,2,0,0,1-.57-1.52V94.11h1.54v2.61a1.09,1.09,0,0,0,.2.75.93.93,0,0,0,1.2,0,1.15,1.15,0,0,0,.19-.75V94.11h1.54v2.66a2,2,0,0,1-.57,1.53,3.08,3.08,0,0,1-3.53,0Z"/><path d="M88.65,94.29a2.14,2.14,0,0,1,.76.84,3.08,3.08,0,0,1,0,2.59,2,2,0,0,1-1.82,1.13,1.68,1.68,0,0,1-.9-.23,1.7,1.7,0,0,1-.63-.62v2.53H84.52V94.11H86l.1.81a1.66,1.66,0,0,1,.63-.68,1.82,1.82,0,0,1,.93-.25A1.89,1.89,0,0,1,88.65,94.29Zm-.82,3a1.53,1.53,0,0,0,0-1.79,1,1,0,0,0-.76-.34,1,1,0,0,0-.77.35,1.5,1.5,0,0,0,0,1.77,1,1,0,0,0,1.53,0Z"/><path d="M91.63,98.54a2.17,2.17,0,0,1-.88-.87,2.57,2.57,0,0,1-.3-1.25,2.53,2.53,0,0,1,.3-1.24,2.11,2.11,0,0,1,.88-.87,3.22,3.22,0,0,1,2.8,0,2.11,2.11,0,0,1,.88.87,2.53,2.53,0,0,1,.3,1.24,2.57,2.57,0,0,1-.3,1.25,2.17,2.17,0,0,1-.88.87,3.32,3.32,0,0,1-2.8,0Zm2.15-1.22a1.53,1.53,0,0,0,0-1.79,1,1,0,0,0-1.51,0,1.53,1.53,0,0,0,0,1.79,1,1,0,0,0,1.51,0Z"/><path d="M102.47,97.54h-2.42l-.36,1.2H98L100.35,92h1.81l2.33,6.79h-1.67Zm-.34-1.15-.87-2.94-.87,2.94Z"/><path d="M110.8,98.74l-.35-4.44L109,98.74h-.77l-1.46-4.42-.34,4.42H104.9l.6-6.79h1.68l1.43,4.51L110,92h1.68l.61,6.79Z"/><path d="M114.68,98.39a3.07,3.07,0,0,1-1.2-1.25,3.74,3.74,0,0,1-.42-1.78,3.84,3.84,0,0,1,.42-1.79,3.12,3.12,0,0,1,1.2-1.27,3.5,3.5,0,0,1,1.82-.47,3.74,3.74,0,0,1,1.47.29,3.24,3.24,0,0,1,1.15.79l-1.15,1a1.78,1.78,0,0,0-.62-.5,1.87,1.87,0,0,0-.83-.18,1.75,1.75,0,0,0-1,.27,1.8,1.8,0,0,0-.64.75,2.38,2.38,0,0,0-.23,1,2.32,2.32,0,0,0,.24,1.08,1.72,1.72,0,0,0,.66.75,1.86,1.86,0,0,0,1,.26,1.9,1.9,0,0,0,1.56-.74l1.15,1a3.21,3.21,0,0,1-1.17.87,3.74,3.74,0,0,1-1.59.32A3.5,3.5,0,0,1,114.68,98.39Z"/><path d="M121.62,98.39a3.2,3.2,0,0,1-1.23-1.27,3.7,3.7,0,0,1-.44-1.78,3.63,3.63,0,0,1,.44-1.77,3.2,3.2,0,0,1,1.23-1.27,3.51,3.51,0,0,1,1.81-.47,3.44,3.44,0,0,1,1.79.47,3.34,3.34,0,0,1,1.23,1.27,3.63,3.63,0,0,1,.44,1.77,3.7,3.7,0,0,1-.44,1.78,3.24,3.24,0,0,1-1.22,1.27,3.77,3.77,0,0,1-3.61,0Zm2.74-1.25a1.87,1.87,0,0,0,.66-.73,2.31,2.31,0,0,0,.24-1.07,2.27,2.27,0,0,0-.24-1.06,1.9,1.9,0,0,0-.66-.74,1.81,1.81,0,0,0-1.87,0,1.83,1.83,0,0,0-.66.74,2.27,2.27,0,0,0-.24,1.06,2.31,2.31,0,0,0,.24,1.07,1.8,1.8,0,0,0,.66.73,1.75,1.75,0,0,0,1.87,0Z"/><path d="M133.43,92v6.79h-1.57l-2.46-4.49v4.49h-1.57V92h1.57l2.46,4.48V92Z"/><path d="M136.15,93.25v1.37h2.22v1.19h-2.22v2.93h-1.59V92h4v1.3Z"/><path d="M143.18,98.74l-1-2.15h-1.14v2.15h-1.56V92h2.64a2.61,2.61,0,0,1,1.88.63,2.25,2.25,0,0,1,.65,1.69,2.41,2.41,0,0,1-.28,1.19,1.87,1.87,0,0,1-.8.8l1.22,2.48Zm-2.11-3.37h.81a1.18,1.18,0,0,0,.91-.31,1.22,1.22,0,0,0,0-1.58,1.23,1.23,0,0,0-.92-.31h-.8Z"/><path d="M149.58,97.54h-2.42l-.36,1.2h-1.65L147.46,92h1.82l2.32,6.79h-1.66Zm-.34-1.15-.86-2.94-.88,2.94Z"/><path d="M155.89,98.74l-1-2.15h-1.13v2.15h-1.57V92h2.65a2.58,2.58,0,0,1,1.87.63,2.22,2.22,0,0,1,.65,1.69,2.52,2.52,0,0,1-.27,1.19,1.9,1.9,0,0,1-.81.8l1.23,2.48Zm-2.1-3.37h.81a1.19,1.19,0,0,0,.91-.31,1.22,1.22,0,0,0,0-1.58,1.24,1.24,0,0,0-.92-.31h-.8Z"/><path d="M158.38,92H160v6.79h-1.59Z"/><path d="M165,97.54H162.6l-.36,1.2h-1.65L162.9,92h1.82L167,98.74h-1.66Zm-.34-1.15-.87-2.94-.87,2.94Z"/><path d="M307.54,81.45c-4.4,0-6.42,2.34-6.42,6.08V98.09h4.4V93.23h16.75v4.86h4.4V81.45ZM322.27,90H305.52V88.5c0-2.28.37-3.8,3.06-3.8h13.69Z"/><polygon points="332.07 81.45 332.07 84.7 342.4 84.7 342.4 98.09 346.81 98.09 346.81 84.7 357.17 84.7 357.17 81.45 332.07 81.45"/><path d="M272.9,91.68c0,2.32.47,3.16,3.05,3.16H294.3v3.25H274.92c-4.41,0-6.45-2-6.45-5.72V81.45H294.3V84.7H272.9V88h20.54v3.18H272.9Z"/><path d="M241.44,87.23c-1.36-.11-1.59-.58-1.59-1.4s.4-1.18,1.43-1.18h20.27v-3.2H240.77c-3,0-5,1.14-5,4.45s1.53,4.45,4.9,4.73L257.12,92c1.27.11,1.61.54,1.61,1.44s-.38,1.4-1.5,1.4H236.6v3.25h21c3.61,0,5.2-1.45,5.2-4.86,0-3.12-1.44-4.34-5-4.64Z"/><path d="M261.14,24.65c.06-2.27.2-7.84.31-11.11.14-4.19,1-6.75,2.76-8.28,2.39-2.12,5.18-2.63,11.83-3a395.69,395.69,0,0,1,50.77.65,6.1,6.1,0,0,1,3.22.81c.87.59,1,1.26,1.21,4.75.14,2,.4,7.32.55,10.25-6.79-.35-18.3-.94-28.33-1s-19,.06-20.12.2a4.85,4.85,0,0,0-3.5,1.75l52,9.65v7.59Z"/><path d="M261.07,28.35l70.76,13.18c-.05,1.92-.21,8-.33,11.52-.14,4.2-1,6.75-2.75,8.29-2.4,2.12-5.18,2.62-11.84,3a395.69,395.69,0,0,1-50.77-.65,6.32,6.32,0,0,1-3.22-.8c-.87-.6-1-1.27-1.21-4.76-.16-2.33-.49-9.22-.6-11.51,9.12.62,23.13,1.07,34.56,1.07,2.87,0,10.32.09,12.31.09,1.55,0,3.64-.43,4.69-2.08l-51.6-8.8Z"/></svg>