<svg id="Camada_1" data-name="Camada 1" xmlns="http://www.w3.org/2000/svg" viewBox="0 0 357.17 99.03"><defs><style>.cls-1{fill:#fff;}</style></defs><path class="cls-1" d="M12.37,26.38a13.15,13.15,0,0,1,5.21,1,11.31,11.31,0,0,1,3.61,2.41l-4.51,3.67a6,6,0,0,0-1.63-1.19,6.13,6.13,0,0,0-2.65-.52,4.87,4.87,0,0,0-4,1.78A7.21,7.21,0,0,0,7,38.22,7.18,7.18,0,0,0,8.55,43a5.76,5.76,0,0,0,4.57,1.8,9.24,9.24,0,0,0,2.38-.3,8.43,8.43,0,0,0,2-.8l.26-.15V40.75h-5V37.12H23.21V46.3a13.52,13.52,0,0,1-4.32,2.54,16.45,16.45,0,0,1-5.87,1A13.31,13.31,0,0,1,6.4,48.3a10.6,10.6,0,0,1-4.2-4.2A12.14,12.14,0,0,1,.75,38.22a12.4,12.4,0,0,1,1.51-6.1A10.77,10.77,0,0,1,6.4,27.9a11.83,11.83,0,0,1,6-1.52m0-.75A12.51,12.51,0,0,0,6,27.25a11.55,11.55,0,0,0-4.43,4.5A13.2,13.2,0,0,0,0,38.22a12.88,12.88,0,0,0,1.54,6.24A11.34,11.34,0,0,0,6,49a14,14,0,0,0,7,1.67,17.08,17.08,0,0,0,6.14-1.08,14.49,14.49,0,0,0,4.55-2.68l.25-.23V36.55a.18.18,0,0,0-.19-.18H12.26a.18.18,0,0,0-.18.18v4.76a.19.19,0,0,0,.18.19H17v1.65a6.92,6.92,0,0,1-1.71.66,8.84,8.84,0,0,1-2.2.28,5,5,0,0,1-4-1.54,6.45,6.45,0,0,1-1.34-4.33A6.51,6.51,0,0,1,9,34a4.1,4.1,0,0,1,3.37-1.5,5.44,5.44,0,0,1,2.33.44A5.42,5.42,0,0,1,16.15,34l.36.36a.18.18,0,0,0,.25,0l.4-.32,4.51-3.67.48-.39a.19.19,0,0,0,0-.28l-.44-.44a12,12,0,0,0-3.84-2.57,14.17,14.17,0,0,0-5.51-1.06ZM41.2,26.81V31.5H33.62a.26.26,0,0,0-.26.26v3.63a.25.25,0,0,0,.26.26h6.87v4.13H33.62a.26.26,0,0,0-.26.26v4.44a.25.25,0,0,0,.26.26h7.61v4.69H27.3V26.81H41.2m.75-.75H26.74a.19.19,0,0,0-.19.19V50a.18.18,0,0,0,.19.19H41.8A.18.18,0,0,0,42,50V44.18A.19.19,0,0,0,41.8,44H34.11V40.53h6.94a.19.19,0,0,0,.19-.19V35.09a.2.2,0,0,0-.19-.19H34.11V32.25h7.65a.18.18,0,0,0,.19-.19v-6Zm14.4.29a12,12,0,0,1,6.18,1.56,11,11,0,0,1,4.15,4.25,12.74,12.74,0,0,1,0,11.92,10.87,10.87,0,0,1-4.15,4.25,13,13,0,0,1-12.39,0A11,11,0,0,1,46,44.1a12.8,12.8,0,0,1,0-12,11,11,0,0,1,4.15-4.24,12.14,12.14,0,0,1,6.21-1.56m0-.75a13,13,0,0,0-6.59,1.66,11.68,11.68,0,0,0-4.43,4.53,13.57,13.57,0,0,0,0,12.67A11.66,11.66,0,0,0,49.76,49a13.78,13.78,0,0,0,13.15,0,11.58,11.58,0,0,0,4.43-4.54,13.51,13.51,0,0,0,0-12.64,11.71,11.71,0,0,0-4.43-4.54,12.87,12.87,0,0,0-6.56-1.66Zm26.72.75a12.94,12.94,0,0,1,5.16,1,11,11,0,0,1,3.61,2.43l-4.41,3.83a5.28,5.28,0,0,0-4.21-1.89,5,5,0,0,0-4,1.82,6.91,6.91,0,0,0-1.46,4.52,6.8,6.8,0,0,0,1.57,4.65,5.25,5.25,0,0,0,4.15,1.81,6,6,0,0,0,4.54-2l4.39,3.71a11.83,11.83,0,0,1-3.69,2.55A13.56,13.56,0,0,1,83.1,49.9a12.23,12.23,0,0,1-6.2-1.52,10.3,10.3,0,0,1-4-4.17,12.64,12.64,0,0,1-1.42-6,13.08,13.08,0,0,1,1.4-6.07,10.52,10.52,0,0,1,4-4.24,12,12,0,0,1,6.2-1.56m0-.75a12.79,12.79,0,0,0-6.58,1.66,11.28,11.28,0,0,0-4.3,4.55,13.73,13.73,0,0,0-1.49,6.41,13.45,13.45,0,0,0,1.5,6.34A11.15,11.15,0,0,0,76.53,49a13,13,0,0,0,6.57,1.62A14.14,14.14,0,0,0,89,49.46a12.49,12.49,0,0,0,3.93-2.71l.42-.43a.18.18,0,0,0,0-.27l-.46-.39L88.46,42l-.41-.35a.19.19,0,0,0-.25,0l-.37.39a5.28,5.28,0,0,1-4,1.77,4.56,4.56,0,0,1-3.59-1.56,6.12,6.12,0,0,1-1.38-4.16,6.21,6.21,0,0,1,1.29-4,4.21,4.21,0,0,1,3.46-1.55,4.55,4.55,0,0,1,3.65,1.63l.36.42a.19.19,0,0,0,.27,0l.43-.37,4.41-3.83.45-.39a.19.19,0,0,0,0-.28l-.42-.42a12.2,12.2,0,0,0-3.85-2.59,13.74,13.74,0,0,0-5.46-1.06Zm26.67,1.21,7.74,22.62h-6.32L110.22,46a.26.26,0,0,0-.25-.19h-7.83a.26.26,0,0,0-.25.19l-1,3.42H94.63l7.73-22.62h7.38m.54-.75h-8.45l-.18.51L93.92,49.19l-.26.74a.19.19,0,0,0,.18.25h7.53a.17.17,0,0,0,.18-.14l.12-.41.84-3.06h7.09l.84,3.06.12.41a.17.17,0,0,0,.18.14h7.53a.19.19,0,0,0,.18-.25l-.26-.74-7.74-22.62-.17-.51Zm20,.29a12.94,12.94,0,0,1,5.16,1,11.17,11.17,0,0,1,3.61,2.42l-4.41,3.84a5.29,5.29,0,0,0-4.21-1.89,5,5,0,0,0-4,1.82A6.91,6.91,0,0,0,125,38.06a6.84,6.84,0,0,0,1.56,4.65,5.28,5.28,0,0,0,4.16,1.81,6,6,0,0,0,4.54-2l4.39,3.71a11.76,11.76,0,0,1-3.7,2.55,13.48,13.48,0,0,1-5.57,1.12,12.23,12.23,0,0,1-6.2-1.52,10.39,10.39,0,0,1-4-4.17,12.64,12.64,0,0,1-1.41-6,13.08,13.08,0,0,1,1.4-6.07,10.52,10.52,0,0,1,4-4.24,12,12,0,0,1,6.2-1.56m0-.75a12.76,12.76,0,0,0-6.58,1.66,11.28,11.28,0,0,0-4.3,4.55,13.7,13.7,0,0,0-1.49,6.41,13.33,13.33,0,0,0,1.5,6.34A11.13,11.13,0,0,0,123.76,49a13.07,13.07,0,0,0,6.58,1.62,14.14,14.14,0,0,0,5.88-1.19,12.61,12.61,0,0,0,3.93-2.71l.42-.43a.18.18,0,0,0,0-.27l-.46-.39L135.7,42l-.41-.35a.19.19,0,0,0-.25,0l-.37.39a5.29,5.29,0,0,1-4,1.77,4.56,4.56,0,0,1-3.59-1.56,6.12,6.12,0,0,1-1.38-4.16A6.21,6.21,0,0,1,127,34a4.21,4.21,0,0,1,3.46-1.55,4.55,4.55,0,0,1,3.65,1.63l.36.42a.19.19,0,0,0,.27,0l.42-.37,4.41-3.83L140,30a.2.2,0,0,0,0-.28l-.43-.42a12,12,0,0,0-3.84-2.59,13.74,13.74,0,0,0-5.46-1.06Zm32.05,1.21V49.43H156.3v-9a.26.26,0,0,0-.26-.26h-6.53a.26.26,0,0,0-.26.26v9h-6.06V26.81h6.06v8.37a.26.26,0,0,0,.26.26H156a.26.26,0,0,0,.26-.26V26.81h6.06m.75-.75h-7.37a.19.19,0,0,0-.19.19v8.44H150V26.25a.19.19,0,0,0-.19-.19h-7.18a.2.2,0,0,0-.19.19V50a.19.19,0,0,0,.19.19h7.18A.18.18,0,0,0,150,50V40.87h5.55V50a.18.18,0,0,0,.19.19h7.18a.19.19,0,0,0,.19-.19V26.06Zm9.76.75V49.43h-6.06V26.81h6.06m.75-.75h-7.37a.19.19,0,0,0-.19.19V50a.18.18,0,0,0,.19.19h7.18a.19.19,0,0,0,.19-.19V26.06Zm23.63.75V49.43h-6.2l-7.1-14a.25.25,0,0,0-.23-.14.26.26,0,0,0-.26.26V49.43h-6V26.81h6.2l7.1,14A.25.25,0,0,0,191,41a.25.25,0,0,0,.26-.26V26.81h6m.75-.75h-7.31a.2.2,0,0,0-.19.19v12.4l-6.17-12.18-.16-.3a.17.17,0,0,0-.16-.11H176.9a.2.2,0,0,0-.19.19V50a.19.19,0,0,0,.19.19H184a.18.18,0,0,0,.19-.19V37.56l6.17,12.21.16.31a.19.19,0,0,0,.17.1h7.1A.18.18,0,0,0,198,50V26.06Zm14.81.32a13.2,13.2,0,0,1,5.22,1,11.54,11.54,0,0,1,3.61,2.41l-4.51,3.67a5.45,5.45,0,0,0-4.29-1.71,4.86,4.86,0,0,0-3.94,1.78,7.16,7.16,0,0,0-1.43,4.69A7.13,7.13,0,0,0,209,43a5.74,5.74,0,0,0,4.56,1.8,9.37,9.37,0,0,0,2.39-.3,8.35,8.35,0,0,0,2-.8l.13-.08a.25.25,0,0,0,.13-.22V41a.26.26,0,0,0-.26-.26h-4.69V37.12h10.39V46.3a13.74,13.74,0,0,1-4.32,2.54,16.49,16.49,0,0,1-5.87,1,13.35,13.35,0,0,1-6.63-1.57,10.67,10.67,0,0,1-4.2-4.2,12.14,12.14,0,0,1-1.45-5.88,12.4,12.4,0,0,1,1.51-6.1,10.79,10.79,0,0,1,4.15-4.22,11.77,11.77,0,0,1,6-1.52m0-.75a12.54,12.54,0,0,0-6.34,1.62,11.68,11.68,0,0,0-4.43,4.5,13.2,13.2,0,0,0-1.6,6.47A12.88,12.88,0,0,0,202,44.46a11.37,11.37,0,0,0,4.5,4.49,14,14,0,0,0,7,1.67,17,17,0,0,0,6.13-1.08,14.65,14.65,0,0,0,4.56-2.68l.25-.23V36.55a.19.19,0,0,0-.19-.18H212.71a.19.19,0,0,0-.19.18v4.76a.2.2,0,0,0,.19.19h4.76v1.65a6.77,6.77,0,0,1-1.71.66,8.72,8.72,0,0,1-2.2.28,5,5,0,0,1-4-1.54,6.45,6.45,0,0,1-1.34-4.33A6.51,6.51,0,0,1,209.47,34a4.12,4.12,0,0,1,3.37-1.5,5.44,5.44,0,0,1,2.33.44A5.31,5.31,0,0,1,216.6,34l.35.36a.2.2,0,0,0,.26,0l.39-.32,4.51-3.67.48-.39a.19.19,0,0,0,0-.28l-.44-.44a12,12,0,0,0-3.85-2.57,14.09,14.09,0,0,0-5.51-1.06ZM106.07,35l1.62,5.88h-3.27L106.07,35m0-2.8-.72,2.6L103.7,40.7l-.27.95h5.25l-.27-.95-1.62-5.88-.72-2.6Zm-49.72.66a4.23,4.23,0,0,1,2.25.64,4.34,4.34,0,0,1,1.61,1.82,6.76,6.76,0,0,1,0,5.57,4.46,4.46,0,0,1-1.61,1.82,4.35,4.35,0,0,1-4.51,0,4.63,4.63,0,0,1-1.62-1.82,6.19,6.19,0,0,1-.61-2.79,6.12,6.12,0,0,1,.61-2.78,4.57,4.57,0,0,1,1.62-1.82,4.19,4.19,0,0,1,2.26-.64m0-.75a4.89,4.89,0,0,0-2.66.76A5.25,5.25,0,0,0,51.8,35a6.79,6.79,0,0,0-.69,3.12,6.86,6.86,0,0,0,.69,3.13,5.39,5.39,0,0,0,1.89,2.11,4.88,4.88,0,0,0,2.66.75A4.8,4.8,0,0,0,59,43.36a5.07,5.07,0,0,0,1.89-2.12,7.5,7.5,0,0,0,0-6.24A5.07,5.07,0,0,0,59,32.88a5,5,0,0,0-2.64-.75ZM169.77,16.88a8.39,8.39,0,0,1-3.14-1.95l3-3a5.5,5.5,0,0,0,4.1,1.82,3.3,3.3,0,0,0,1.51-.3,1,1,0,0,0,.58-.9.89.89,0,0,0-.39-.78,4.38,4.38,0,0,0-1.17-.51l-1.91-.6a16.8,16.8,0,0,1-2.88-1.17,5.29,5.29,0,0,1-1.89-1.68,4.43,4.43,0,0,1-.73-2.6,4.55,4.55,0,0,1,.88-2.84A5.4,5.4,0,0,1,170.17.6,11.33,11.33,0,0,1,178,.82a9,9,0,0,1,2.43,1.58l-2.76,3.14A7.3,7.3,0,0,0,176,4.24a4.13,4.13,0,0,0-2.08-.5,2.42,2.42,0,0,0-1.37.31.93.93,0,0,0-.45.78.92.92,0,0,0,.5.83,6.42,6.42,0,0,0,1.27.55l2,.62a16.58,16.58,0,0,1,2.49,1,5.51,5.51,0,0,1,1.87,1.59,4.4,4.4,0,0,1,.8,2.73,4.85,4.85,0,0,1-.89,2.93,5.52,5.52,0,0,1-2.5,1.87,10.09,10.09,0,0,1-3.75.65A12.15,12.15,0,0,1,169.77,16.88Zm23.8-3.73v4.09h-10.7V.33h10.68v4.1h-5.61V6.65H193v3.7h-5.1v2.8ZM206,14.66h-5.32l-.71,2.58h-5.32L200.41.33h5.8L212,17.24h-5.32Zm-1-3.51-1.65-6-1.67,6Zm19-6.72h-4.16V17.24h-5.1V4.43h-4.16V.33H224ZM15.64,76.52H6.06L4.59,81.28H.15L8.45,57h4.83l8.31,24.29H17.11Zm-1-3.33L10.85,61.05,7.11,73.19ZM40.73,57V81.28H37l-.32-2.72A6.48,6.48,0,0,1,31,81.66a7.22,7.22,0,0,1-3.88-1.09,7.59,7.59,0,0,1-2.8-3,10.37,10.37,0,0,1,0-9A7.62,7.62,0,0,1,27,65.51a7.11,7.11,0,0,1,3.89-1.11,6.48,6.48,0,0,1,3.3.84,6.62,6.62,0,0,1,2.35,2.2V57ZM35.44,76.77A5.58,5.58,0,0,0,36.73,73a5.46,5.46,0,0,0-1.28-3.74,4.57,4.57,0,0,0-6.72,0A5.59,5.59,0,0,0,27.47,73a5.49,5.49,0,0,0,1.29,3.79,4.26,4.26,0,0,0,3.34,1.45A4.21,4.21,0,0,0,35.44,76.77Zm25.06-12L53.89,81.28H49.45L42.83,64.76h4.38l4.44,13,4.41-13Zm18.41,9.52H66.13a4.55,4.55,0,0,0,1.53,3.21,5.33,5.33,0,0,0,3.45,1.07A6.37,6.37,0,0,0,73.84,78a5.4,5.4,0,0,0,1.91-1.39l2.46,2.11A8.61,8.61,0,0,1,75,80.89a11.17,11.17,0,0,1-4.2.77,9.94,9.94,0,0,1-4.75-1.07,7.35,7.35,0,0,1-3-3A9.36,9.36,0,0,1,62,73.06a9.45,9.45,0,0,1,1-4.5,7.38,7.38,0,0,1,2.94-3,9.94,9.94,0,0,1,9.13,0A7.08,7.08,0,0,1,78,68.57a10,10,0,0,1,1,4.49C78.94,73.64,78.93,74,78.91,74.28ZM67.55,68.59a4.8,4.8,0,0,0-1.39,3.1h8.69a5,5,0,0,0-1.34-3.1,4.07,4.07,0,0,0-2.94-1.09A4.27,4.27,0,0,0,67.55,68.59Zm28.93-2.41A7.15,7.15,0,0,1,98,71V81.28H93.83V71.82a5.12,5.12,0,0,0-.8-3.18,3.06,3.06,0,0,0-2.55-1,3.26,3.26,0,0,0-2.94,1.49,6.17,6.17,0,0,0-1,3.43v8.73H82.42V64.76h3.74l.39,2.74a6,6,0,0,1,2.28-2.3A6.48,6.48,0,0,1,92,64.4,5.5,5.5,0,0,1,96.48,66.18Zm14.83,15.13a14.94,14.94,0,0,1-3.23.35,5.21,5.21,0,0,1-3.93-1.36,6.18,6.18,0,0,1-1.31-4.39V68.08h-2.55l.22-3.32h2.33v-4H107v4h3.93v3.32H107v7.57a3.34,3.34,0,0,0,.48,2.08,2,2,0,0,0,1.63.57,7.62,7.62,0,0,0,2-.22Zm4.87-1.54a6.89,6.89,0,0,1-1.9-5.14V64.76h4.15v9.45a4.58,4.58,0,0,0,.9,3.14,3.44,3.44,0,0,0,2.68,1,3.36,3.36,0,0,0,2.64-1,4.64,4.64,0,0,0,.88-3.14V64.76h4.15v9.87a7,7,0,0,1-1.88,5.14q-1.89,1.89-5.79,1.89T116.18,79.77ZM143.84,64.5l-.29,4a8.47,8.47,0,0,0-1.79-.19,3.35,3.35,0,0,0-3,1.5,7.12,7.12,0,0,0-1,4v7.54h-4.16V64.76h3.71l.41,3.1a6.45,6.45,0,0,1,2.06-2.58,4.87,4.87,0,0,1,2.8-.88A6.6,6.6,0,0,1,143.84,64.5Zm19,9.78H150.1a4.55,4.55,0,0,0,1.53,3.21,5.33,5.33,0,0,0,3.45,1.07,6.45,6.45,0,0,0,2.74-.56,5.45,5.45,0,0,0,1.9-1.39l2.46,2.11A8.53,8.53,0,0,1,159,80.89a11.17,11.17,0,0,1-4.2.77,9.94,9.94,0,0,1-4.75-1.07,7.35,7.35,0,0,1-3.05-3A9.36,9.36,0,0,1,146,73.06a9.57,9.57,0,0,1,1-4.5,7.38,7.38,0,0,1,2.94-3,10,10,0,0,1,9.14,0,7.11,7.11,0,0,1,2.89,3.06,10,10,0,0,1,1,4.49C162.91,73.64,162.9,74,162.88,74.28Zm-11.36-5.69a4.8,4.8,0,0,0-1.39,3.1h8.69a4.92,4.92,0,0,0-1.34-3.1,4.07,4.07,0,0,0-2.94-1.09A4.27,4.27,0,0,0,151.52,68.59ZM3.56,93.65a1.72,1.72,0,0,1,.65.73,2.38,2.38,0,0,1,.24,1.1A2.32,2.32,0,0,1,4.2,96.6a1.74,1.74,0,0,1-.66.73,1.67,1.67,0,0,1-.9.25,1.42,1.42,0,0,1-.78-.2,1.47,1.47,0,0,1-.55-.53l-.08.63H0V91.64H1.32v2.54a1.58,1.58,0,0,1,.55-.57,1.48,1.48,0,0,1,.79-.21A1.65,1.65,0,0,1,3.56,93.65Zm-.71,2.61a1.18,1.18,0,0,0,.25-.76,1.2,1.2,0,0,0-.24-.77.81.81,0,0,0-.65-.3.83.83,0,0,0-.67.3,1.11,1.11,0,0,0-.26.76,1.13,1.13,0,0,0,.26.76.83.83,0,0,0,.66.3A.84.84,0,0,0,2.85,96.26ZM9.34,93.5,7.08,99H5.9l.58-1.37L4.77,93.5H6.16l.89,2.78.89-2.78Zm5.56,2.86v1.12H11.53V91.64H12.9v4.72Zm4.83-.53h-3a1,1,0,0,0,.32.64,1.14,1.14,0,0,0,.72.21,1.48,1.48,0,0,0,.65-.13,1.7,1.7,0,0,0,.45-.31l.7.63a2.32,2.32,0,0,1-.83.53,3,3,0,0,1-1.07.18,2.72,2.72,0,0,1-1.23-.26,1.94,1.94,0,0,1-.77-.73,2.32,2.32,0,0,1-.26-1.1,2.26,2.26,0,0,1,.25-1.08,1.91,1.91,0,0,1,.75-.74,2.72,2.72,0,0,1,2.34,0,1.74,1.74,0,0,1,.73.74,2.33,2.33,0,0,1,.25,1.11C19.74,95.59,19.74,95.69,19.73,95.83ZM17,94.52a1.08,1.08,0,0,0-.28.62h1.73a1,1,0,0,0-.27-.62.76.76,0,0,0-.58-.22A.84.84,0,0,0,17,94.52Zm3.65-1.82a.73.73,0,0,1-.22-.54.75.75,0,0,1,.75-.75.71.71,0,0,1,.53.22.69.69,0,0,1,.22.53.71.71,0,0,1-.22.53.72.72,0,0,1-.53.23A.75.75,0,0,1,20.67,92.7Zm-.13.8h1.33v4H20.54Zm5.05-.06-.09,1.2a3.36,3.36,0,0,0-.5-.06.78.78,0,0,0-.67.3,1.36,1.36,0,0,0-.23.83v1.77H22.78v-4h1.16l.15.74a1.69,1.69,0,0,1,.5-.63,1.13,1.13,0,0,1,.66-.21A1,1,0,0,1,25.59,93.44Zm.74-.74a.73.73,0,0,1-.22-.54.72.72,0,0,1,.21-.53.71.71,0,0,1,.53-.22.75.75,0,0,1,.76.75.75.75,0,0,1-.22.53.74.74,0,0,1-.54.23A.73.73,0,0,1,26.33,92.7Zm-.13.8h1.32v4H26.2Zm5.81.15a1.78,1.78,0,0,1,.65.73,2.51,2.51,0,0,1,.23,1.1,2.44,2.44,0,0,1-.24,1.12,1.88,1.88,0,0,1-.66.73,1.71,1.71,0,0,1-.91.25,1.46,1.46,0,0,1-.78-.2,1.38,1.38,0,0,1-.54-.53l-.09.63H28.44V91.64h1.33v2.54a1.48,1.48,0,0,1,.54-.57,1.51,1.51,0,0,1,.79-.21A1.71,1.71,0,0,1,32,93.65Zm-.72,2.61a1.12,1.12,0,0,0,.25-.76,1.2,1.2,0,0,0-.24-.77.79.79,0,0,0-.65-.3.83.83,0,0,0-.67.3,1.11,1.11,0,0,0-.25.76,1.12,1.12,0,0,0,.25.76.83.83,0,0,0,.66.3A.81.81,0,0,0,31.29,96.26Zm6.57-.43h-3a1,1,0,0,0,.32.64,1.14,1.14,0,0,0,.72.21,1.48,1.48,0,0,0,.65-.13,1.7,1.7,0,0,0,.45-.31l.7.63a2.32,2.32,0,0,1-.83.53,3,3,0,0,1-1.07.18,2.65,2.65,0,0,1-1.22-.26,1.9,1.9,0,0,1-.78-.73,2.32,2.32,0,0,1-.26-1.1,2.16,2.16,0,0,1,.26-1.08,1.82,1.82,0,0,1,.74-.74,2.72,2.72,0,0,1,2.34,0,1.74,1.74,0,0,1,.73.74,2.33,2.33,0,0,1,.25,1.11C37.87,95.59,37.87,95.69,37.86,95.83Zm-2.71-1.31a1.08,1.08,0,0,0-.28.62H36.6a1,1,0,0,0-.27-.62.76.76,0,0,0-.58-.22A.84.84,0,0,0,35.15,94.52ZM36.09,93h-.83l.54-1.33h1.33Zm5.37.47-.09,1.2a3.36,3.36,0,0,0-.5-.06.78.78,0,0,0-.67.3,1.36,1.36,0,0,0-.23.83v1.77H38.65v-4h1.16l.16.74a1.57,1.57,0,0,1,.49-.63,1.13,1.13,0,0,1,.67-.21A1,1,0,0,1,41.46,93.44Zm.74-.74a.73.73,0,0,1-.22-.54.72.72,0,0,1,.21-.53.71.71,0,0,1,.53-.22.75.75,0,0,1,.76.75.75.75,0,0,1-.22.53.74.74,0,0,1-.54.23A.73.73,0,0,1,42.2,92.7Zm-.13.8h1.32v4H42.07Zm6.56,0v4H47.41l-.09-.65a1.61,1.61,0,0,1-.53.54,1.49,1.49,0,0,1-.8.21,1.71,1.71,0,0,1-.91-.25,1.82,1.82,0,0,1-.65-.72,2.61,2.61,0,0,1,0-2.21,1.79,1.79,0,0,1,.64-.74A1.67,1.67,0,0,1,46,93.4a1.52,1.52,0,0,1,.8.21,1.63,1.63,0,0,1,.54.57V93.5ZM47.1,96.25a1.28,1.28,0,0,0,0-1.52.88.88,0,0,0-1.32,0,1.28,1.28,0,0,0,0,1.52.88.88,0,0,0,1.32,0Zm4.19-1.33h2.59v1H51.29ZM62,94.25v2.44a3.62,3.62,0,0,1-1.1.64,3.82,3.82,0,0,1-1.42.25,3.25,3.25,0,0,1-1.67-.4,2.71,2.71,0,0,1-1.07-1.08,3.08,3.08,0,0,1-.37-1.52A3.2,3.2,0,0,1,56.79,93a2.73,2.73,0,0,1,1-1.09,2.84,2.84,0,0,1,1.51-.4,3.21,3.21,0,0,1,1.3.25,2.73,2.73,0,0,1,1,.68l-1,.85a1.53,1.53,0,0,0-.55-.4,1.72,1.72,0,0,0-.74-.14,1.45,1.45,0,0,0-.81.22,1.41,1.41,0,0,0-.54.64,2.13,2.13,0,0,0-.19.94,1.94,1.94,0,0,0,.44,1.33,1.63,1.63,0,0,0,1.28.49,2.35,2.35,0,0,0,1.24-.33V95.2H59.23v-1Zm3.69-.81-.09,1.2a3.22,3.22,0,0,0-.5-.06.79.79,0,0,0-.67.3,1.36,1.36,0,0,0-.23.83v1.77H62.92v-4h1.16l.16.74a1.57,1.57,0,0,1,.49-.63,1.13,1.13,0,0,1,.67-.21A.92.92,0,0,1,65.73,93.44Zm1,3.66a1.74,1.74,0,0,1-.49-1.31V93.5H67.6v2.24a.94.94,0,0,0,.18.65.63.63,0,0,0,.51.19.65.65,0,0,0,.52-.19,1,1,0,0,0,.17-.65V93.5H70.3v2.29a1.71,1.71,0,0,1-.49,1.31,2.08,2.08,0,0,1-1.52.48A2.12,2.12,0,0,1,66.77,97.1Zm8-3.45a1.78,1.78,0,0,1,.65.73,2.39,2.39,0,0,1,.24,1.11,2.34,2.34,0,0,1-.25,1.12,1.77,1.77,0,0,1-.66.72,1.71,1.71,0,0,1-.91.25,1.41,1.41,0,0,1-.77-.2,1.38,1.38,0,0,1-.54-.53V99H71.17V93.5H72.4l.09.7a1.47,1.47,0,0,1,.54-.59,1.54,1.54,0,0,1,.8-.21A1.65,1.65,0,0,1,74.73,93.65ZM74,96.26a1.19,1.19,0,0,0,.25-.77,1.16,1.16,0,0,0-.25-.76.79.79,0,0,0-.65-.3.81.81,0,0,0-.66.3,1.24,1.24,0,0,0,0,1.52.81.81,0,0,0,.66.3A.84.84,0,0,0,74,96.26Zm3.27,1a1.78,1.78,0,0,1-.76-.75,2.33,2.33,0,0,1,0-2.14,1.78,1.78,0,0,1,.76-.75,2.47,2.47,0,0,1,1.2-.27,2.52,2.52,0,0,1,1.21.27,1.83,1.83,0,0,1,.76.75,2.41,2.41,0,0,1,0,2.14,1.83,1.83,0,0,1-.76.75,2.52,2.52,0,0,1-1.21.27A2.47,2.47,0,0,1,77.29,97.31Zm1.85-1a1.12,1.12,0,0,0,.25-.77,1.13,1.13,0,0,0-.25-.77.87.87,0,0,0-1.3,0,1.13,1.13,0,0,0-.25.77,1.12,1.12,0,0,0,.25.77.87.87,0,0,0,1.3,0Zm7.48.19H84.53l-.3,1H82.8l2-5.84h1.56l2,5.84H86.92Zm-.3-1-.74-2.53-.75,2.53Zm7.47,2-.3-3.82-1.25,3.82h-.67l-1.25-3.8L90,97.48H88.71l.52-5.84h1.44l1.23,3.88,1.23-3.88h1.45l.52,5.84Zm3.34-.3a2.64,2.64,0,0,1-1-1.08,3.19,3.19,0,0,1-.36-1.52A3.34,3.34,0,0,1,96.09,93a2.73,2.73,0,0,1,1-1.09,3,3,0,0,1,1.56-.4,3.1,3.1,0,0,1,1.27.25,2.78,2.78,0,0,1,1,.68l-1,.88a1.54,1.54,0,0,0-.54-.43,1.61,1.61,0,0,0-.71-.15,1.54,1.54,0,0,0-.83.23,1.58,1.58,0,0,0-.56.64,2.06,2.06,0,0,0-.19.91,2.12,2.12,0,0,0,.2.93,1.48,1.48,0,0,0,.57.64,1.6,1.6,0,0,0,.84.23,1.63,1.63,0,0,0,1.35-.64l1,.85a2.82,2.82,0,0,1-1,.74,3.2,3.2,0,0,1-1.37.28A3,3,0,0,1,97.13,97.18Zm6,0A2.85,2.85,0,0,1,102,96.09,3.35,3.35,0,0,1,102,93a2.85,2.85,0,0,1,1.06-1.09,3,3,0,0,1,1.55-.4,3,3,0,0,1,1.55.4A2.92,2.92,0,0,1,107.26,93a3.27,3.27,0,0,1,0,3.06,2.78,2.78,0,0,1-1.06,1.09,3,3,0,0,1-1.55.4A3,3,0,0,1,103.1,97.18Zm2.36-1.07a1.56,1.56,0,0,0,.56-.63,2.12,2.12,0,0,0,0-1.84,1.56,1.56,0,0,0-.56-.63,1.52,1.52,0,0,0-1.61,0,1.58,1.58,0,0,0-.57.63,2.12,2.12,0,0,0,0,1.84,1.58,1.58,0,0,0,.57.63,1.52,1.52,0,0,0,1.61,0Zm7.8-4.47v5.84h-1.35l-2.11-3.86v3.86h-1.36V91.64h1.36l2.11,3.86V91.64Zm2.35,1.12v1.18h1.91v1h-1.91v2.52h-1.37V91.64h3.46v1.12Zm6,4.72-.84-1.84h-1v1.84H118.5V91.64h2.27a2.26,2.26,0,0,1,1.62.54,2,2,0,0,1,.56,1.46,2.08,2.08,0,0,1-.24,1,1.64,1.64,0,0,1-.69.69l1,2.13Zm-1.82-2.9h.7a1,1,0,0,0,.78-.27,1,1,0,0,0,0-1.35,1,1,0,0,0-.79-.27h-.69Zm7.33,1.87h-2.09l-.3,1h-1.43l2-5.84h1.56l2,5.84h-1.43Zm-.3-1-.74-2.53-.75,2.53Zm5.73,2-.84-1.84h-1v1.84h-1.35V91.64h2.28a2.22,2.22,0,0,1,1.61.54,2,2,0,0,1,.56,1.46,2.08,2.08,0,0,1-.24,1,1.64,1.64,0,0,1-.69.69l1,2.13Zm-1.81-2.9h.7a1,1,0,0,0,.78-.27,1,1,0,0,0,.25-.67,1,1,0,0,0-.25-.68,1,1,0,0,0-.79-.27h-.69Zm4-2.94h1.36v5.84h-1.36Zm5.71,4.81h-2.08l-.31,1h-1.42l2-5.84h1.56l2,5.84h-1.43Zm-.29-1-.74-2.53-.76,2.53ZM307.29,81.12c-4.43,0-6.46,2.36-6.46,6.12V97.85h4.43V93h16.82v4.89h4.44V81.12Zm14.79,8.56H305.26V88.21c0-2.29.36-3.82,3.07-3.82h13.75Zm9.86-8.56v3.27h10.39V97.85h4.43V84.39h10.41V81.12Zm-59.48,9.75h20.65v-3.2H272.46V84.39H294V81.12H268v11c0,3.76,2.06,5.75,6.48,5.75H294V94.58H275.53c-2.59,0-3.07-.84-3.07-3.17Zm-31.62-3.93c-1.36-.11-1.6-.59-1.6-1.41s.41-1.19,1.44-1.19h20.38V81.12H240.17c-3,0-5,1.15-5,4.48s1.53,4.47,4.92,4.75l16.53,1.38c1.27.11,1.62.54,1.62,1.45s-.39,1.4-1.51,1.4H236v3.27h21.1c3.63,0,5.23-1.45,5.23-4.89,0-3.13-1.45-4.36-5-4.66Zm90.91-50.61V28.7L279.44,19A4.86,4.86,0,0,1,283,17.24c1.07-.14,10.15-.3,20.23-.2s21.65.69,28.47,1c-.15-2.94-.42-8.29-.55-10.3-.23-3.51-.34-4.18-1.22-4.78a6.27,6.27,0,0,0-3.24-.81,399.88,399.88,0,0,0-51-.66c-6.69.37-9.49.88-11.89,3C262,6.08,261.1,8.65,261,12.86c-.11,3.3-.26,8.89-.32,11.17Zm-71.17,0,51.86,8.84c-1.06,1.66-3.16,2.09-4.72,2.09-2,0-9.48-.09-12.37-.09-11.48,0-25.57-.45-34.74-1.07.11,2.29.45,9.22.61,11.57.23,3.5.34,4.18,1.22,4.77a6.15,6.15,0,0,0,3.23.81,398.2,398.2,0,0,0,51,.66c6.69-.36,9.48-.87,11.89-3,1.74-1.55,2.62-4.11,2.77-8.33.12-3.52.28-9.65.32-11.58L260.58,27.75Z"/></svg>