<svg id="Camada_1" data-name="Camada 1" xmlns="http://www.w3.org/2000/svg" viewBox="0 0 357.17 99.03"><defs><style>.cls-1{fill:#fff;}</style></defs><path class="cls-1" d="M12.37,26.38a13.28,13.28,0,0,1,5.21,1,11.26,11.26,0,0,1,3.61,2.41l-4.51,3.67a5.8,5.8,0,0,0-1.63-1.19,6,6,0,0,0-2.65-.52,4.89,4.89,0,0,0-4,1.78A7.23,7.23,0,0,0,7,38.22,7.12,7.12,0,0,0,8.55,43a5.77,5.77,0,0,0,4.57,1.8,9.58,9.58,0,0,0,2.38-.3,8.45,8.45,0,0,0,2-.8l.26-.15v-2.8h-5V37.12H23.21V46.3a13.45,13.45,0,0,1-4.32,2.54,16.33,16.33,0,0,1-5.87,1A13.28,13.28,0,0,1,6.4,48.3a10.61,10.61,0,0,1-4.2-4.2A12.19,12.19,0,0,1,.75,38.22a12.37,12.37,0,0,1,1.51-6.1A10.7,10.7,0,0,1,6.4,27.9a11.88,11.88,0,0,1,6-1.52m0-.75A12.57,12.57,0,0,0,6,27.25a11.54,11.54,0,0,0-4.43,4.5A13.15,13.15,0,0,0,0,38.22a12.93,12.93,0,0,0,1.54,6.24A11.33,11.33,0,0,0,6,49a14,14,0,0,0,7,1.67,17.12,17.12,0,0,0,6.14-1.08,14.61,14.61,0,0,0,4.55-2.68l.25-.23V36.55a.18.18,0,0,0-.18-.18H12.26a.18.18,0,0,0-.18.18h0v4.76a.19.19,0,0,0,.18.19H17v1.65a7,7,0,0,1-1.71.66,8.62,8.62,0,0,1-2.2.28,5,5,0,0,1-4-1.54,6.43,6.43,0,0,1-1.34-4.33A6.51,6.51,0,0,1,9,34a4.09,4.09,0,0,1,3.37-1.5,5.32,5.32,0,0,1,2.33.44A5.41,5.41,0,0,1,16.15,34l.36.36a.18.18,0,0,0,.25,0l.4-.32,4.51-3.67.48-.39a.19.19,0,0,0,0-.27h0l-.44-.44a12,12,0,0,0-3.84-2.57,14.08,14.08,0,0,0-5.51-1.06Zm28.8,1.18V31.5H33.62a.26.26,0,0,0-.26.26v3.63a.25.25,0,0,0,.24.26h6.89v4.13H33.62a.26.26,0,0,0-.26.26v4.44a.25.25,0,0,0,.24.26h7.63v4.69H27.3V26.81H41.2m.75-.75H26.74a.2.2,0,0,0-.19.19h0V50a.18.18,0,0,0,.17.19H41.8A.18.18,0,0,0,42,50V44.18a.19.19,0,0,0-.2-.18H34.11V40.53h6.94a.2.2,0,0,0,.19-.19V35.09a.21.21,0,0,0-.19-.19H34.11V32.25h7.65a.18.18,0,0,0,.19-.17v-6Zm14.4.29a12,12,0,0,1,6.18,1.56,11,11,0,0,1,4.15,4.25,12.76,12.76,0,0,1,0,11.92,10.87,10.87,0,0,1-4.15,4.25,13,13,0,0,1-12.39,0A11.07,11.07,0,0,1,46,44.1a12.81,12.81,0,0,1,0-12,11,11,0,0,1,4.15-4.24,12.05,12.05,0,0,1,6.21-1.56m0-.75a13,13,0,0,0-6.59,1.66,11.62,11.62,0,0,0-4.43,4.53,13.59,13.59,0,0,0,0,12.67A11.68,11.68,0,0,0,49.76,49a13.76,13.76,0,0,0,13.15,0,11.58,11.58,0,0,0,4.43-4.54,13.52,13.52,0,0,0,0-12.64,11.71,11.71,0,0,0-4.43-4.54,12.86,12.86,0,0,0-6.56-1.66Zm26.72.75a13,13,0,0,1,5.16,1,11.05,11.05,0,0,1,3.61,2.43l-4.41,3.83a5.28,5.28,0,0,0-4.21-1.89,5,5,0,0,0-4,1.82A6.91,6.91,0,0,0,77.77,38a6.84,6.84,0,0,0,1.57,4.65,5.26,5.26,0,0,0,4.15,1.81,6,6,0,0,0,4.54-2l4.39,3.71a11.9,11.9,0,0,1-3.69,2.55A13.47,13.47,0,0,1,83.1,49.9a12.23,12.23,0,0,1-6.2-1.52,10.36,10.36,0,0,1-4-4.17,12.63,12.63,0,0,1-1.42-6,13,13,0,0,1,1.4-6.07,10.53,10.53,0,0,1,4-4.24,12,12,0,0,1,6.2-1.56m0-.75a12.74,12.74,0,0,0-6.58,1.66,11.35,11.35,0,0,0-4.3,4.55,13.7,13.7,0,0,0-1.49,6.41,13.46,13.46,0,0,0,1.5,6.34A11.14,11.14,0,0,0,76.53,49a13,13,0,0,0,6.57,1.62A14.07,14.07,0,0,0,89,49.46a12.4,12.4,0,0,0,3.93-2.71l.42-.43a.19.19,0,0,0,0-.25l0,0-.46-.39L88.46,42l-.41-.35a.2.2,0,0,0-.25,0l-.37.39a5.26,5.26,0,0,1-4,1.77,4.56,4.56,0,0,1-3.59-1.56,6.11,6.11,0,0,1-1.38-4.16,6.21,6.21,0,0,1,1.29-4,4.2,4.2,0,0,1,3.46-1.55,4.54,4.54,0,0,1,3.65,1.63l.36.42a.19.19,0,0,0,.27,0h0l.43-.37,4.41-3.83.45-.39a.19.19,0,0,0,0-.27h0l-.42-.42a12.26,12.26,0,0,0-3.85-2.59,13.83,13.83,0,0,0-5.46-1.06Zm26.67,1.21,7.74,22.62h-6.32l-1-3.42a.26.26,0,0,0-.25-.19h-7.83a.26.26,0,0,0-.25.19l-1,3.42H94.63l7.73-22.62h7.38m.54-.75h-8.45l-.18.51L93.92,49.19l-.26.74a.19.19,0,0,0,.12.24h7.59a.16.16,0,0,0,.18-.14l.12-.41.84-3.06h7.09l.84,3.06.12.41a.16.16,0,0,0,.18.14h7.53a.2.2,0,0,0,.19-.19.13.13,0,0,0,0-.06l-.26-.74-7.74-22.62-.17-.51Zm20,.29a13,13,0,0,1,5.16,1,11,11,0,0,1,3.61,2.42l-4.41,3.84a5.28,5.28,0,0,0-4.21-1.89,5,5,0,0,0-4,1.82A6.91,6.91,0,0,0,125,38.06a6.83,6.83,0,0,0,1.56,4.65,5.28,5.28,0,0,0,4.16,1.81,6,6,0,0,0,4.54-2l4.39,3.71a11.66,11.66,0,0,1-3.7,2.55,13.5,13.5,0,0,1-5.57,1.12,12.23,12.23,0,0,1-6.2-1.52,10.36,10.36,0,0,1-4-4.17,12.62,12.62,0,0,1-1.41-6,13,13,0,0,1,1.4-6.07,10.53,10.53,0,0,1,4-4.24,12,12,0,0,1,6.2-1.56m0-.75a12.74,12.74,0,0,0-6.58,1.66,11.35,11.35,0,0,0-4.3,4.55A13.7,13.7,0,0,0,118,38.21a13.34,13.34,0,0,0,1.5,6.34A11.12,11.12,0,0,0,123.76,49a13,13,0,0,0,6.58,1.62,14.16,14.16,0,0,0,5.88-1.19,12.51,12.51,0,0,0,3.93-2.71l.42-.43a.19.19,0,0,0,0-.25l0,0-.46-.39L135.7,42l-.41-.35a.2.2,0,0,0-.25,0l-.37.39a5.31,5.31,0,0,1-4,1.77,4.56,4.56,0,0,1-3.59-1.56,6.11,6.11,0,0,1-1.38-4.16A6.18,6.18,0,0,1,127,34a4.2,4.2,0,0,1,3.46-1.55,4.54,4.54,0,0,1,3.65,1.63l.36.42a.19.19,0,0,0,.27,0h0l.42-.37,4.41-3.83L140,30a.19.19,0,0,0,0-.28l-.43-.42a12.1,12.1,0,0,0-3.84-2.59,13.83,13.83,0,0,0-5.46-1.06Zm32,1.21V49.43H156.3v-9a.26.26,0,0,0-.26-.26h-6.53a.26.26,0,0,0-.26.26v9h-6.06V26.81h6.06v8.37a.26.26,0,0,0,.26.26H156a.26.26,0,0,0,.26-.26V26.81h6.06m.75-.75H155.7a.2.2,0,0,0-.19.19h0v8.44H150V26.25a.2.2,0,0,0-.19-.19h-7.18a.21.21,0,0,0-.19.19V50a.2.2,0,0,0,.19.19h7.18A.18.18,0,0,0,150,50V40.87h5.55V50a.18.18,0,0,0,.17.19h7.2a.2.2,0,0,0,.19-.19h0V26.06Zm9.76.75V49.43h-6.06V26.81h6.06m.75-.75h-7.37a.2.2,0,0,0-.19.19h0V50a.18.18,0,0,0,.17.19h7.2a.2.2,0,0,0,.19-.19h0Zm23.63.75V49.43H191l-7.1-14a.24.24,0,0,0-.23-.14.26.26,0,0,0-.26.26V49.43h-6V26.81h6.2l7.1,14a.28.28,0,0,0,.54-.05V26.81h6m.75-.75H190.7a.21.21,0,0,0-.19.19v12.4l-6.17-12.18-.16-.3a.17.17,0,0,0-.16-.11H176.9a.21.21,0,0,0-.19.19V50a.2.2,0,0,0,.19.19H184a.18.18,0,0,0,.19-.17V37.56l6.17,12.21.16.31a.19.19,0,0,0,.17.1h7.1A.18.18,0,0,0,198,50v-24Zm14.81.32a13.32,13.32,0,0,1,5.22,1,11.71,11.71,0,0,1,3.61,2.41l-4.51,3.67a5.46,5.46,0,0,0-4.29-1.71,4.83,4.83,0,0,0-3.94,1.78,7.19,7.19,0,0,0-1.43,4.69A7.13,7.13,0,0,0,209,43a5.75,5.75,0,0,0,4.56,1.8,9.6,9.6,0,0,0,2.39-.3,8.45,8.45,0,0,0,2-.8l.13-.08a.25.25,0,0,0,.13-.22V41a.26.26,0,0,0-.26-.26h-4.69V37.12h10.39V46.3a13.75,13.75,0,0,1-4.32,2.54,16.33,16.33,0,0,1-5.87,1,13.32,13.32,0,0,1-6.63-1.57,10.61,10.61,0,0,1-4.2-4.2,12.19,12.19,0,0,1-1.45-5.88,12.37,12.37,0,0,1,1.51-6.1,10.73,10.73,0,0,1,4.15-4.22,11.78,11.78,0,0,1,6-1.52m0-.75a12.55,12.55,0,0,0-6.34,1.62,11.68,11.68,0,0,0-4.43,4.5,13.15,13.15,0,0,0-1.6,6.47A12.93,12.93,0,0,0,202,44.46,11.37,11.37,0,0,0,206.5,49a14,14,0,0,0,7,1.67,17.11,17.11,0,0,0,6.13-1.08,14.66,14.66,0,0,0,4.56-2.68l.25-.23V36.55a.19.19,0,0,0-.19-.18H212.71a.19.19,0,0,0-.19.18v4.76a.21.21,0,0,0,.19.19h4.76v1.65a6.59,6.59,0,0,1-1.71.66,8.62,8.62,0,0,1-2.2.28,5,5,0,0,1-4-1.54,6.43,6.43,0,0,1-1.34-4.33A6.51,6.51,0,0,1,209.47,34a4.12,4.12,0,0,1,3.37-1.5A4.64,4.64,0,0,1,216.6,34l.35.36a.21.21,0,0,0,.26,0l.39-.32,4.51-3.67.48-.39a.19.19,0,0,0,0-.27h0l-.44-.44a11.93,11.93,0,0,0-3.85-2.57,14.08,14.08,0,0,0-5.51-1.06ZM106.07,35l1.62,5.88h-3.27L106.07,35m0-2.8-.72,2.6-1.65,5.9-.27.95h5.25l-.27-.95-1.62-5.88-.72-2.6Zm-49.72.66a4.23,4.23,0,0,1,2.25.64,4.3,4.3,0,0,1,1.61,1.82,6.76,6.76,0,0,1,0,5.57,4.56,4.56,0,0,1-1.61,1.82,4.35,4.35,0,0,1-4.51,0,4.66,4.66,0,0,1-1.62-1.82,6.66,6.66,0,0,1,0-5.57,4.66,4.66,0,0,1,1.62-1.82,4.2,4.2,0,0,1,2.26-.64m0-.75a4.92,4.92,0,0,0-2.66.76A5.26,5.26,0,0,0,51.8,35a7.42,7.42,0,0,0,0,6.25,5.34,5.34,0,0,0,1.89,2.11,4.91,4.91,0,0,0,2.66.75A4.86,4.86,0,0,0,59,43.36a5.1,5.1,0,0,0,1.89-2.12,7.47,7.47,0,0,0,0-6.24A5.1,5.1,0,0,0,59,32.88a5,5,0,0,0-2.64-.75ZM169.77,16.88a8.35,8.35,0,0,1-3.14-1.95l3-3a5.53,5.53,0,0,0,4.1,1.82,3.27,3.27,0,0,0,1.51-.3,1,1,0,0,0,.58-.9.87.87,0,0,0-.39-.78,4.2,4.2,0,0,0-1.17-.51l-1.91-.6a16.72,16.72,0,0,1-2.88-1.17,5.27,5.27,0,0,1-1.89-1.68,4.44,4.44,0,0,1-.73-2.6,4.58,4.58,0,0,1,.88-2.84A5.46,5.46,0,0,1,170.17.6,11.34,11.34,0,0,1,178,.82a9.07,9.07,0,0,1,2.43,1.58l-2.76,3.14A7.28,7.28,0,0,0,176,4.24a4.08,4.08,0,0,0-2.08-.5,2.43,2.43,0,0,0-1.37.31,1,1,0,0,0-.45.78.93.93,0,0,0,.5.83,6.5,6.5,0,0,0,1.27.55l2,.62a16.81,16.81,0,0,1,2.49,1,5.61,5.61,0,0,1,1.87,1.59,4.44,4.44,0,0,1,.8,2.73,4.79,4.79,0,0,1-.89,2.93,5.53,5.53,0,0,1-2.5,1.87,10.22,10.22,0,0,1-3.75.65A12.07,12.07,0,0,1,169.77,16.88Zm23.8-3.73v4.09h-10.7V.33h10.68v4.1h-5.61V6.65H193v3.7h-5.1v2.8ZM206,14.66h-5.32L200,17.24h-5.32L200.41.33h5.8L212,17.24h-5.32Zm-1-3.51-1.65-6-1.67,6Zm19-6.72h-4.16V17.24h-5.1V4.43h-4.16V.33H224ZM15.64,76.52H6.06L4.59,81.28H.15L8.45,57h4.83l8.31,24.29H17.11Zm-1-3.33L10.85,61.05,7.11,73.19ZM40.73,57V81.28H37l-.32-2.72A6.49,6.49,0,0,1,31,81.66a7.27,7.27,0,0,1-3.88-1.09,7.56,7.56,0,0,1-2.8-3,10.37,10.37,0,0,1,0-9A7.69,7.69,0,0,1,27,65.51a7.13,7.13,0,0,1,3.89-1.11,6.46,6.46,0,0,1,3.3.84,6.61,6.61,0,0,1,2.35,2.2V57ZM35.44,76.77A5.58,5.58,0,0,0,36.73,73a5.43,5.43,0,0,0-1.28-3.74A4.57,4.57,0,0,0,29,69a3.19,3.19,0,0,0-.26.26A5.58,5.58,0,0,0,27.47,73a5.52,5.52,0,0,0,1.29,3.79,4.55,4.55,0,0,0,6.68,0Zm25.06-12L53.89,81.28H49.45L42.83,64.76h4.38l4.44,13,4.41-13Zm18.41,9.52H66.13a4.56,4.56,0,0,0,1.53,3.21,5.29,5.29,0,0,0,3.45,1.07A6.43,6.43,0,0,0,73.84,78a5.47,5.47,0,0,0,1.91-1.39l2.46,2.11A8.58,8.58,0,0,1,75,80.89a11.17,11.17,0,0,1-4.2.77,10,10,0,0,1-4.75-1.07,7.35,7.35,0,0,1-3-3,9.29,9.29,0,0,1-1-4.53,9.47,9.47,0,0,1,1-4.5,7.38,7.38,0,0,1,2.94-3,9.94,9.94,0,0,1,9.13,0,7,7,0,0,1,2.93,3,10,10,0,0,1,1,4.49c-.06.58-.07.94-.09,1.22Zm-11.36-5.7a4.78,4.78,0,0,0-1.39,3.1h8.69a5,5,0,0,0-1.34-3.1,4.09,4.09,0,0,0-2.94-1.09A4.3,4.3,0,0,0,67.55,68.59Zm28.93-2.41A7.12,7.12,0,0,1,98,71V81.28H93.83V71.82a5.09,5.09,0,0,0-.8-3.18,3,3,0,0,0-2.55-1,3.27,3.27,0,0,0-2.94,1.49,6.22,6.22,0,0,0-1,3.43v8.73H82.42V64.76h3.74l.39,2.74a5.93,5.93,0,0,1,2.28-2.3A6.49,6.49,0,0,1,92,64.4,5.49,5.49,0,0,1,96.48,66.18Zm14.83,15.13a15.22,15.22,0,0,1-3.23.35,5.21,5.21,0,0,1-3.93-1.36,6.2,6.2,0,0,1-1.31-4.39V68.08h-2.55l.22-3.32h2.33v-4H107v4h3.93v3.32H107v7.57a3.37,3.37,0,0,0,.48,2.08,2,2,0,0,0,1.63.57,7.49,7.49,0,0,0,2-.22Zm4.87-1.54a6.9,6.9,0,0,1-1.9-5.14V64.76h4.15v9.45a4.54,4.54,0,0,0,.9,3.14,3.43,3.43,0,0,0,2.68,1,3.38,3.38,0,0,0,2.64-1,4.64,4.64,0,0,0,.88-3.14V64.76h4.15v9.87a7,7,0,0,1-1.88,5.14q-1.89,1.89-5.79,1.89T116.18,79.77ZM143.84,64.5l-.29,4a8.31,8.31,0,0,0-1.79-.19,3.35,3.35,0,0,0-3,1.5,7.13,7.13,0,0,0-1,4v7.54H133.6V64.76h3.71l.41,3.1a6.48,6.48,0,0,1,2.06-2.58,4.92,4.92,0,0,1,2.8-.88A6.69,6.69,0,0,1,143.84,64.5Zm19,9.78H150.1a4.56,4.56,0,0,0,1.53,3.21,5.29,5.29,0,0,0,3.45,1.07,6.47,6.47,0,0,0,2.74-.56,5.34,5.34,0,0,0,1.9-1.39l2.46,2.11A8.47,8.47,0,0,1,159,80.89a11.17,11.17,0,0,1-4.2.77,10,10,0,0,1-4.75-1.07,7.41,7.41,0,0,1-3.05-3,9.36,9.36,0,0,1-1-4.53,9.5,9.5,0,0,1,1-4.5,7.38,7.38,0,0,1,2.94-3,10,10,0,0,1,9.14,0A7.06,7.06,0,0,1,162,68.62a10,10,0,0,1,1,4.49c-.06.53-.07.89-.09,1.17Zm-11.36-5.69a4.78,4.78,0,0,0-1.39,3.1h8.69a4.92,4.92,0,0,0-1.34-3.1,4.09,4.09,0,0,0-2.94-1.09,4.3,4.3,0,0,0-3,1.09ZM307.29,81.12c-4.43,0-6.46,2.36-6.46,6.12V97.85h4.43V93h16.82v4.89h4.44V81.12Zm14.79,8.56H305.26V88.21c0-2.29.36-3.82,3.07-3.82h13.75Zm9.86-8.56v3.27h10.39V97.85h4.43V84.39h10.41V81.12Zm-59.48,9.75h20.65v-3.2H272.46V84.39H294V81.12H268v11c0,3.76,2.06,5.75,6.48,5.75H294V94.58H275.53c-2.59,0-3.07-.84-3.07-3.17Zm-31.62-3.93c-1.36-.11-1.6-.59-1.6-1.41s.41-1.19,1.44-1.19h20.38V81.12H240.17c-3,0-5,1.15-5,4.48s1.53,4.47,4.92,4.75l16.53,1.38c1.27.11,1.62.54,1.62,1.45s-.39,1.4-1.51,1.4H236v3.27h21.1c3.63,0,5.23-1.45,5.23-4.89,0-3.13-1.45-4.36-5-4.66Zm90.91-50.61V28.7L279.44,19A4.84,4.84,0,0,1,283,17.24c1.07-.14,10.15-.3,20.23-.2s21.65.69,28.47,1c-.15-2.94-.42-8.29-.55-10.3-.23-3.51-.34-4.18-1.22-4.78a6.25,6.25,0,0,0-3.24-.81,398.14,398.14,0,0,0-51-.66c-6.69.37-9.49.88-11.89,3-1.8,1.59-2.7,4.16-2.8,8.37-.11,3.3-.26,8.89-.32,11.17Zm-71.17,0,51.86,8.84c-1.06,1.66-3.16,2.09-4.72,2.09-2,0-9.48-.09-12.37-.09-11.48,0-25.57-.45-34.74-1.07.11,2.29.45,9.22.61,11.57.23,3.5.34,4.18,1.22,4.77a6.19,6.19,0,0,0,3.23.81,398.14,398.14,0,0,0,51,.66c6.69-.36,9.48-.87,11.89-3,1.74-1.55,2.62-4.11,2.77-8.33.12-3.52.28-9.65.32-11.58L260.58,27.75Z"/></svg>