<svg id="Camada_1" data-name="Camada 1" xmlns="http://www.w3.org/2000/svg" viewBox="0 0 353.88 138.35"><path d="M4.05,74.2H0V65.69H6.16l2.05-8H4.33V49.24h6l2.28-9.08H24.39l-2.28,9.08H28l2.28-9.08H42l-2.28,9.08h3.93V57.7h-6.1l-2,8h3.88V74.2h-6L31,83.57H19.26l2.4-9.37H15.79l-2.4,9.37H1.65Zm8.6,8.52,2.4-9.37H22.8l-2.4,9.37h9.86l2.39-9.37h5.82v-6.8H34.36l2.45-9.71h5.93V50.1H38.52L40.86,41H31L28.66,50.1H20.91L23.25,41H13.39L11.06,50.1H5.24v6.74H9.35L6.9,66.55h-6v6.8H5.19l-2.4,9.37Zm6.56-25.88H27L24.5,66.55H16.75Zm4.55,8.85,2.06-8H20l-2.06,8Z"/><path d="M77.27,77H63.65l-1.82,6.62H48.21L63,40.16H77.9L92.72,83.57H79.1Zm-2.56-9L70.49,52.61,66.22,67.92Z"/><path d="M101,83.12a8,8,0,0,1-4.13-4.37,22.66,22.66,0,0,1-1.28-8.54v-30H108V70.44A4.6,4.6,0,0,0,109,73.78a4.75,4.75,0,0,0,3.45,1h.85L114,84a27.87,27.87,0,0,1-5.19.4A19.26,19.26,0,0,1,101,83.12Z"/><path d="M122.86,83.12a8,8,0,0,1-4.13-4.37,22.66,22.66,0,0,1-1.28-8.54v-30h12.42V70.44a4.6,4.6,0,0,0,1,3.34,4.78,4.78,0,0,0,3.45,1h.86l.68,9.2a27.87,27.87,0,0,1-5.19.4A19.26,19.26,0,0,1,122.86,83.12Z"/><path d="M172,50.67H161.33v32.9H148.28V50.67H137.62V40.16H172Z"/><path d="M206,56.41q2.5,3.41,2.51,9.28V83.57H196V68a9.17,9.17,0,0,0-.8-4.52,2.88,2.88,0,0,0-2.67-1.31,3.25,3.25,0,0,0-3.08,1.6,8.75,8.75,0,0,0-.91,4.34V83.57H176V40.16h12.54V58a11.45,11.45,0,0,1,4.13-3.71A11.73,11.73,0,0,1,198.25,53C201.75,53,204.33,54.15,206,56.41Z"/><path d="M247,71.52H225.55a4.85,4.85,0,0,0,1.91,3.6A7.38,7.38,0,0,0,232,76.38a10.47,10.47,0,0,0,4.58-.95,14.53,14.53,0,0,0,3.22-2l6.33,5.65q-5.93,5.37-15.1,5.37a21.66,21.66,0,0,1-9.83-2,14.12,14.12,0,0,1-6.07-5.6,15.89,15.89,0,0,1-2.05-8.08,16.34,16.34,0,0,1,2-8,13.89,13.89,0,0,1,5.87-5.63A20,20,0,0,1,230.33,53q7.92,0,12.37,4.2T247.14,69A17.42,17.42,0,0,1,247,71.52Zm-19.8-9.17a5.78,5.78,0,0,0-1.62,3.57h9.63a6,6,0,0,0-1.4-3.6,4.2,4.2,0,0,0-3.22-1.25A4.71,4.71,0,0,0,227.17,62.35Z"/><path d="M265.21,50.67v5.71H278v9.43H265.21V83.57h-13V40.16h27V50.67Z"/><path d="M287.6,80.63q-3.93-3.8-3.93-10.42V53.87h12.54V70.32c0,1.87.31,3.15.94,3.86a3.6,3.6,0,0,0,2.82,1,3.41,3.41,0,0,0,2.76-1,6.2,6.2,0,0,0,.89-3.86V53.87h12.53V70.21q0,6.62-3.9,10.42T300,84.43Q291.54,84.43,287.6,80.63Z"/><path d="M351.34,56.41q2.54,3.41,2.54,9.28V83.57H341.34V68a9,9,0,0,0-.82-4.52,3,3,0,0,0-2.71-1.31q-3.93,0-3.93,5.94V83.57H321.34V53.87h11.17l1.31,4.23a10.74,10.74,0,0,1,4.1-3.77,12,12,0,0,1,5.7-1.32C347.08,53,349.65,54.15,351.34,56.41Z"/><path d="M74.83,10.79v6.14h2.56V14.11h9.74v2.82h2.56V7.26H78.57C76,7.26,74.83,8.62,74.83,10.79Zm12.3-1.64v3.06H77.39v-.85c0-1.33.21-2.21,1.78-2.21ZM49.65,11.41l-9.54-.79c-.79-.06-.92-.34-.92-.81s.23-.69.83-.69H51.81V7.26H39.72c-1.72,0-2.9.66-2.9,2.58s.89,2.59,2.85,2.75l9.57.8c.74.07.93.32.93.84S50,15,49.3,15h-12v1.89H49.51c2.1,0,3-.84,3-2.82C52.54,12.29,51.7,11.58,49.65,11.41ZM0,13.47l19.78,3.38a2.08,2.08,0,0,1-1.8.79l-4.72,0c-4.38,0-9.75-.17-13.25-.41,0,.87.18,3.52.23,4.41.09,1.34.14,1.6.47,1.82A2.28,2.28,0,0,0,2,23.74,151.83,151.83,0,0,0,21.41,24c2.55-.14,3.62-.33,4.53-1.14.67-.59,1-1.57,1.06-3.18.05-1.34.11-3.68.13-4.42L0,10.2ZM8.54,6.19c.41-.05,3.87-.11,7.71-.07s8.26.26,10.86.4c-.05-1.13-.16-3.17-.21-3.94C26.81,1.25,26.77,1,26.44.76A2.53,2.53,0,0,0,25.2.45,153.69,153.69,0,0,0,5.74.2C3.19.34,2.12.54,1.2,1.35a4.2,4.2,0,0,0-1,3.17C.1,5.78.05,7.91,0,8.78l27.12,4.69V10.56L7.2,6.86A1.86,1.86,0,0,1,8.54,6.19ZM92.83,7.26V9.15h6v7.78h2.57V9.15h6V7.26Zm-37,6.35c0,2.17,1.19,3.32,3.75,3.32H70.87V15H60.19c-1.5,0-1.78-.48-1.78-1.83v-.32h12V11.05h-12V9.15H70.87V7.26h-15Z"/><path d="M145.23,105.83a3.63,3.63,0,0,0-2-.55,3.31,3.31,0,0,0-1.73.45,3.21,3.21,0,0,0-1.19,1.26v-5.56h-2.88v12.76h2.68l.19-1.38a3.23,3.23,0,0,0,1.18,1.17,3.38,3.38,0,0,0,1.7.43,3.78,3.78,0,0,0,2-.55,3.72,3.72,0,0,0,1.44-1.59,5.81,5.81,0,0,0,0-4.85A3.86,3.86,0,0,0,145.23,105.83Zm-1.55,5.69a1.9,1.9,0,0,1-2.86,0,2.8,2.8,0,0,1,0-3.33,1.84,1.84,0,0,1,1.46-.65,1.71,1.71,0,0,1,1.41.66,2.56,2.56,0,0,1,.53,1.68A2.49,2.49,0,0,1,143.68,111.52Z"/><polygon points="152.18 111.86 150.25 105.49 147.2 105.49 151.02 114.54 149.68 117.56 152.24 117.56 157.17 105.49 154.12 105.49 152.18 111.86"/><polygon points="164.48 101.43 161.5 101.43 161.5 114.19 168.85 114.19 168.85 111.74 164.48 111.74 164.48 101.43"/><path d="M176.86,105.84a5.92,5.92,0,0,0-5.07,0,4,4,0,0,0-1.64,1.62,4.93,4.93,0,0,0-.56,2.36,4.73,4.73,0,0,0,.58,2.39,4,4,0,0,0,1.68,1.61,5.8,5.8,0,0,0,2.68.57,6.6,6.6,0,0,0,2.32-.4,5.08,5.08,0,0,0,1.82-1.15l-1.54-1.37a3.51,3.51,0,0,1-1,.67,3.3,3.3,0,0,1-1.4.28,2.51,2.51,0,0,1-1.54-.43,1.92,1.92,0,0,1-.72-1.3H179c0-.38,0-.66,0-.85a5.19,5.19,0,0,0-.55-2.43A3.8,3.8,0,0,0,176.86,105.84Zm-4.35,3.06a2,2,0,0,1,.63-1.23,1.82,1.82,0,0,1,1.26-.45,1.73,1.73,0,0,1,1.2.43,2,2,0,0,1,.59,1.25Z"/><rect x="180.54" y="105.49" width="2.88" height="8.69"/><path d="M182,100.93a1.55,1.55,0,0,0-1.16.48,1.67,1.67,0,0,0,0,2.33,1.62,1.62,0,0,0,2.31,0,1.59,1.59,0,0,0,.48-1.16,1.57,1.57,0,0,0-.48-1.16A1.59,1.59,0,0,0,182,100.93Z"/><path d="M189.13,105.75a3.44,3.44,0,0,0-1.07,1.37l-.33-1.63H185.2v8.7h2.88v-3.86a3,3,0,0,1,.49-1.82,1.7,1.7,0,0,1,1.47-.67,7.38,7.38,0,0,1,1.09.14l.18-2.62a2.22,2.22,0,0,0-.72-.08A2.4,2.4,0,0,0,189.13,105.75Z"/><rect x="192.43" y="105.49" width="2.88" height="8.69"/><path d="M193.86,100.93a1.55,1.55,0,0,0-1.16.48,1.67,1.67,0,0,0,0,2.33,1.62,1.62,0,0,0,2.31,0,1.59,1.59,0,0,0,.48-1.16,1.57,1.57,0,0,0-.48-1.16A1.59,1.59,0,0,0,193.86,100.93Z"/><path d="M204.87,105.83a3.69,3.69,0,0,0-2-.55,3.33,3.33,0,0,0-1.73.45A3.21,3.21,0,0,0,200,107v-5.56H197.1v12.76h2.68l.19-1.38a3.23,3.23,0,0,0,1.18,1.17,3.38,3.38,0,0,0,1.7.43,3.78,3.78,0,0,0,2-.55,3.72,3.72,0,0,0,1.44-1.59,5.81,5.81,0,0,0,0-4.85A3.91,3.91,0,0,0,204.87,105.83Zm-1.56,5.69a1.77,1.77,0,0,1-1.42.64,1.79,1.79,0,0,1-1.44-.66,2.8,2.8,0,0,1,0-3.33,1.84,1.84,0,0,1,1.46-.65,1.74,1.74,0,0,1,1.42.66,2.61,2.61,0,0,1,.52,1.68A2.49,2.49,0,0,1,203.31,111.52Z"/><polygon points="211.74 104.28 213.55 104.28 215.81 101.43 212.91 101.43 211.74 104.28"/><path d="M215.27,105.84a5.2,5.2,0,0,0-2.51-.56,5.26,5.26,0,0,0-2.56.58,3.92,3.92,0,0,0-1.63,1.62,5.27,5.27,0,0,0,0,4.75,4,4,0,0,0,1.69,1.61,5.77,5.77,0,0,0,2.68.57,6.55,6.55,0,0,0,2.31-.4,5,5,0,0,0,1.82-1.15l-1.54-1.37a3.27,3.27,0,0,1-2.38,1,2.53,2.53,0,0,1-1.54-.43,1.92,1.92,0,0,1-.72-1.3h6.5c0-.38,0-.66,0-.85a5.07,5.07,0,0,0-.55-2.43A3.75,3.75,0,0,0,215.27,105.84Zm-4.35,3.06a2,2,0,0,1,.64-1.23,1.79,1.79,0,0,1,1.25-.45,1.77,1.77,0,0,1,1.21.43,2,2,0,0,1,.58,1.25Z"/><path d="M222.84,105.75a3.44,3.44,0,0,0-1.07,1.37l-.33-1.63h-2.53v8.7h2.88v-3.86a3,3,0,0,1,.49-1.82,1.7,1.7,0,0,1,1.47-.67,7.14,7.14,0,0,1,1.08.14l.19-2.62a2.22,2.22,0,0,0-.72-.08A2.4,2.4,0,0,0,222.84,105.75Z"/><rect x="226.14" y="105.49" width="2.88" height="8.69"/><path d="M227.56,100.93a1.55,1.55,0,0,0-1.15.48,1.67,1.67,0,0,0,0,2.33,1.62,1.62,0,0,0,2.31,0,1.59,1.59,0,0,0,.48-1.16,1.57,1.57,0,0,0-.48-1.16A1.59,1.59,0,0,0,227.56,100.93Z"/><path d="M237.34,107a3.39,3.39,0,0,0-1.19-1.22,3.15,3.15,0,0,0-1.74-.47,3.57,3.57,0,0,0-2,.57,3.91,3.91,0,0,0-1.4,1.62,5.38,5.38,0,0,0-.51,2.39,5.11,5.11,0,0,0,.53,2.42,3.73,3.73,0,0,0,1.43,1.58,3.78,3.78,0,0,0,2,.55,3.18,3.18,0,0,0,1.74-.46,3.48,3.48,0,0,0,1.16-1.19l.2,1.43h2.66v-8.7h-2.88Zm-.47,4.53a1.75,1.75,0,0,1-1.42.66,1.82,1.82,0,0,1-1.45-.65,2.85,2.85,0,0,1,0-3.34,1.82,1.82,0,0,1,1.45-.65,1.75,1.75,0,0,1,1.42.66,2.74,2.74,0,0,1,0,3.32Z"/><path d="M143.6,130H147v1.91a5.1,5.1,0,0,1-2.7.73,3.56,3.56,0,0,1-2.79-1.09,4.18,4.18,0,0,1-1-2.89,5,5,0,0,1,.41-2.07,3.13,3.13,0,0,1,2.94-1.88,3.87,3.87,0,0,1,1.62.31,3.39,3.39,0,0,1,1.19.88l2.18-1.86a6.09,6.09,0,0,0-2.17-1.49,7.22,7.22,0,0,0-2.84-.54,6.27,6.27,0,0,0-3.29.87,6.12,6.12,0,0,0-2.27,2.38,7.09,7.09,0,0,0-.82,3.4,6.89,6.89,0,0,0,.8,3.31,5.81,5.81,0,0,0,2.33,2.36,7.24,7.24,0,0,0,3.64.87,8.73,8.73,0,0,0,3.1-.53,8.16,8.16,0,0,0,2.39-1.41v-5.32H143.6Z"/><path d="M155.37,126.53a3.48,3.48,0,0,0-1.07,1.38l-.33-1.63h-2.53V135h2.88v-3.86a3,3,0,0,1,.49-1.82,1.72,1.72,0,0,1,1.47-.66,8.55,8.55,0,0,1,1.09.13l.18-2.61a2.17,2.17,0,0,0-.72-.09A2.47,2.47,0,0,0,155.37,126.53Z"/><path d="M164.42,131.18a2.17,2.17,0,0,1-.37,1.41,1.72,1.72,0,0,1-2.25,0,2.05,2.05,0,0,1-.38-1.41v-4.9h-2.88v5a3.82,3.82,0,0,0,1.07,2.86,4.59,4.59,0,0,0,3.32,1.05,4.54,4.54,0,0,0,3.3-1,3.82,3.82,0,0,0,1.07-2.87v-5h-2.88Z"/><path d="M176.73,126.62a3.66,3.66,0,0,0-2-.56,3.37,3.37,0,0,0-1.74.46,3.13,3.13,0,0,0-1.18,1.29l-.2-1.53H169v12.07h2.88V133.6a3.28,3.28,0,0,0,1.17,1.17,3.4,3.4,0,0,0,1.7.42,3.77,3.77,0,0,0,2-.54,4,4,0,0,0,1.44-1.58,5.2,5.2,0,0,0,.54-2.44,5.31,5.31,0,0,0-.53-2.43A3.88,3.88,0,0,0,176.73,126.62Zm-1.55,5.69a1.8,1.8,0,0,1-1.42.63,1.78,1.78,0,0,1-1.44-.65,2.78,2.78,0,0,1,0-3.32,1.79,1.79,0,0,1,1.44-.66,1.75,1.75,0,0,1,1.42.65,2.87,2.87,0,0,1,0,3.35Z"/><path d="M187.34,126.66a5.35,5.35,0,0,0-2.63-.6,5.41,5.41,0,0,0-2.63.6,4.11,4.11,0,0,0-1.65,1.63,5.17,5.17,0,0,0,0,4.68,4.11,4.11,0,0,0,1.65,1.63,5.52,5.52,0,0,0,2.63.59,5.47,5.47,0,0,0,2.63-.59A4,4,0,0,0,189,133a5.17,5.17,0,0,0,0-4.68A4,4,0,0,0,187.34,126.66Zm-1.22,5.65a1.9,1.9,0,0,1-2.83,0,2.84,2.84,0,0,1,0-3.36,1.88,1.88,0,0,1,2.83,0,2.84,2.84,0,0,1,0,3.36Z"/><path d="M198,122.22,193.67,135h3.1l.67-2.24H202l.67,2.24h3.11l-4.35-12.75Zm.07,8.34,1.64-5.52,1.62,5.52Z"/><polygon points="215.94 122.22 213.37 130.34 210.77 122.22 207.44 122.22 206.31 134.97 209.41 134.97 210 127.02 212.61 134.97 214.1 134.97 216.71 127 217.32 134.97 220.4 134.97 219.29 122.22 215.94 122.22"/><path d="M228.12,132.51a3.32,3.32,0,0,1-1.84-.51,3.28,3.28,0,0,1-1.24-1.39,4.91,4.91,0,0,1,0-4,3.26,3.26,0,0,1,3-1.9,3.56,3.56,0,0,1,1.55.33,3.32,3.32,0,0,1,1.16.94l2.16-1.93a6.19,6.19,0,0,0-2.15-1.49A7,7,0,0,0,228,122a6.55,6.55,0,0,0-3.41.87,5.89,5.89,0,0,0-2.25,2.39,7.19,7.19,0,0,0-.79,3.37,7,7,0,0,0,.79,3.34,5.87,5.87,0,0,0,2.25,2.36,6.6,6.6,0,0,0,3.43.86,7.23,7.23,0,0,0,3-.6,6.27,6.27,0,0,0,2.2-1.63l-2.16-1.85A3.6,3.6,0,0,1,228.12,132.51Z"/><path d="M243.51,122.87a7,7,0,0,0-6.75,0,6,6,0,0,0-2.31,2.39,7.21,7.21,0,0,0,0,6.68,6,6,0,0,0,2.31,2.38,7,7,0,0,0,6.76,0,6.19,6.19,0,0,0,2.3-2.38,7,7,0,0,0,.82-3.34,6.84,6.84,0,0,0-.83-3.34A6.15,6.15,0,0,0,243.51,122.87Zm-.39,7.73a3.44,3.44,0,0,1-1.23,1.38,3.19,3.19,0,0,1-1.75.49,3.24,3.24,0,0,1-1.76-.49,3.46,3.46,0,0,1-1.24-1.38,4.69,4.69,0,0,1,0-4,3.53,3.53,0,0,1,1.24-1.38,3.24,3.24,0,0,1,1.76-.49,3.19,3.19,0,0,1,1.75.49,3.51,3.51,0,0,1,1.23,1.38,4.69,4.69,0,0,1,0,4Z"/><polygon points="255.78 130.59 251.03 122.22 248.18 122.22 248.18 134.97 251.13 134.97 251.08 126.58 255.83 134.97 258.68 134.97 258.68 122.22 255.73 122.22 255.78 130.59"/><polygon points="260.59 134.97 263.57 134.97 263.57 129.47 267.74 129.47 267.74 127.24 263.57 127.24 263.57 124.67 268.12 124.67 268.12 122.22 260.59 122.22 260.59 134.97"/><path d="M278.82,128.82a4.6,4.6,0,0,0,.52-2.24,4.2,4.2,0,0,0-1.22-3.18,4.86,4.86,0,0,0-3.52-1.18h-5V135h2.93v-4h2.12l1.83,4h3.08l-2.29-4.64A3.58,3.58,0,0,0,278.82,128.82Zm-3-.76a2.22,2.22,0,0,1-1.7.59h-1.52v-4.13h1.5a2.23,2.23,0,0,1,1.72.58,2.27,2.27,0,0,1,0,3Z"/><path d="M284.35,122.22,280,135h3.1l.67-2.24h4.54L289,135h3.11l-4.35-12.75Zm.07,8.34,1.64-5.52,1.62,5.52Z"/><path d="M302.23,128.82a4.6,4.6,0,0,0,.52-2.24,4.2,4.2,0,0,0-1.22-3.18,4.85,4.85,0,0,0-3.52-1.18h-4.95V135H296v-4h2.12l1.83,4H303l-2.29-4.64A3.58,3.58,0,0,0,302.23,128.82Zm-3-.76a2.22,2.22,0,0,1-1.7.59H296v-4.13h1.5a2.23,2.23,0,0,1,1.72.58,2.27,2.27,0,0,1,0,3Z"/><rect x="304.38" y="122.22" width="2.98" height="12.76"/><path d="M312.65,122.22,308.31,135h3.1l.67-2.24h4.54l.67,2.24h3.11l-4.35-12.75Zm.07,8.34,1.64-5.52,1.62,5.52Z"/></svg>